<?xml version="1.0" encoding="UTF-8"?>
<svg id="Layer_1" data-name="Layer 1" xmlns="http://www.w3.org/2000/svg" xmlns:xlink="http://www.w3.org/1999/xlink" viewBox="0 0 1598.88 463.22">
  <defs>
    <style>
      .cls-1 {
        fill: #b39141;
      }

      .cls-1, .cls-2, .cls-3, .cls-4, .cls-5, .cls-6, .cls-7, .cls-8, .cls-9, .cls-10, .cls-11, .cls-12, .cls-13, .cls-14, .cls-15, .cls-16, .cls-17, .cls-18, .cls-19, .cls-20, .cls-21, .cls-22, .cls-23, .cls-24, .cls-25, .cls-26, .cls-27, .cls-28, .cls-29, .cls-30, .cls-31, .cls-32, .cls-33, .cls-34, .cls-35, .cls-36, .cls-37, .cls-38, .cls-39, .cls-40, .cls-41, .cls-42, .cls-43, .cls-44, .cls-45, .cls-46, .cls-47, .cls-48, .cls-49, .cls-50, .cls-51, .cls-52, .cls-53, .cls-54, .cls-55, .cls-56, .cls-57, .cls-58, .cls-59, .cls-60, .cls-61, .cls-62, .cls-63, .cls-64, .cls-65, .cls-66, .cls-67, .cls-68, .cls-69, .cls-70, .cls-71, .cls-72, .cls-73, .cls-74, .cls-75, .cls-76, .cls-77, .cls-78, .cls-79, .cls-80, .cls-81, .cls-82, .cls-83, .cls-84, .cls-85, .cls-86, .cls-87, .cls-88, .cls-89, .cls-90, .cls-91, .cls-92, .cls-93, .cls-94, .cls-95, .cls-96, .cls-97, .cls-98, .cls-99, .cls-100, .cls-101, .cls-102, .cls-103, .cls-104, .cls-105, .cls-106, .cls-107, .cls-108, .cls-109, .cls-110, .cls-111, .cls-112, .cls-113, .cls-114, .cls-115, .cls-116, .cls-117, .cls-118, .cls-119, .cls-120, .cls-121, .cls-122, .cls-123, .cls-124, .cls-125, .cls-126, .cls-127, .cls-128, .cls-129, .cls-130, .cls-131, .cls-132, .cls-133, .cls-134, .cls-135, .cls-136, .cls-137, .cls-138, .cls-139, .cls-140, .cls-141, .cls-142, .cls-143, .cls-144, .cls-145, .cls-146, .cls-147, .cls-148, .cls-149, .cls-150, .cls-151, .cls-152, .cls-153, .cls-154, .cls-155, .cls-156, .cls-157, .cls-158, .cls-159, .cls-160, .cls-161, .cls-162, .cls-163, .cls-164, .cls-165, .cls-166, .cls-167, .cls-168, .cls-169, .cls-170, .cls-171, .cls-172, .cls-173, .cls-174, .cls-175, .cls-176, .cls-177, .cls-178, .cls-179, .cls-180, .cls-181, .cls-182, .cls-183, .cls-184, .cls-185, .cls-186, .cls-187, .cls-188, .cls-189, .cls-190, .cls-191, .cls-192, .cls-193, .cls-194, .cls-195, .cls-196, .cls-197, .cls-198, .cls-199, .cls-200, .cls-201, .cls-202, .cls-203, .cls-204, .cls-205, .cls-206, .cls-207, .cls-208, .cls-209, .cls-210, .cls-211, .cls-212, .cls-213, .cls-214, .cls-215, .cls-216, .cls-217, .cls-218, .cls-219, .cls-220, .cls-221, .cls-222, .cls-223, .cls-224, .cls-225, .cls-226, .cls-227, .cls-228, .cls-229, .cls-230, .cls-231, .cls-232, .cls-233 {
        fill-rule: evenodd;
      }

      .cls-2 {
        fill: #9a7c2d;
      }

      .cls-3 {
        fill: #a2802d;
      }

      .cls-4 {
        fill: #a4822f;
      }

      .cls-5 {
        fill: #b89646;
      }

      .cls-6 {
        fill: #8b702b;
      }

      .cls-7 {
        fill: #8e6e2a;
      }

      .cls-8 {
        fill: #a18231;
      }

      .cls-9 {
        fill: #b38e39;
      }

      .cls-10 {
        fill: #b5913c;
      }

      .cls-11 {
        fill: #90742c;
      }

      .cls-12 {
        fill: #b18e3f;
      }

      .cls-13 {
        fill: #c7a04a;
      }

      .cls-14 {
        fill: #ac8835;
      }

      .cls-15 {
        fill: #ab8a3a;
      }

      .cls-16 {
        fill: #b59243;
      }

      .cls-17 {
        fill: #c09c4c;
      }

      .cls-18 {
        fill: #ad8a35;
      }

      .cls-19 {
        fill: #a08130;
      }

      .cls-20 {
        fill: #c49e4f;
      }

      .cls-21 {
        fill: #af8d3e;
      }

      .cls-22 {
        fill: #b08c39;
      }

      .cls-23 {
        fill: #91722b;
      }

      .cls-24 {
        fill: #c6a050;
      }

      .cls-25 {
        fill: #b38e3a;
      }

      .cls-26 {
        fill: #c19d4d;
      }

      .cls-27 {
        fill: #c49d47;
      }

      .cls-28 {
        fill: #b7923d;
      }

      .cls-29 {
        fill: #bf9b44;
      }

      .cls-30 {
        fill: #b4903b;
      }

      .cls-31 {
        fill: #b79444;
      }

      .cls-32 {
        fill: #c5a152;
      }

      .cls-33 {
        fill: #8c712b;
      }

      .cls-34 {
        fill: #b08e3f;
      }

      .cls-234 {
        fill: #231f20;
      }

      .cls-35 {
        fill: #9b7a2c;
      }

      .cls-36 {
        fill: #94742b;
      }

      .cls-37 {
        fill: #c59e48;
      }

      .cls-38 {
        fill: #9c7b2d;
      }

      .cls-235 {
        stroke-width: 2.17px;
      }

      .cls-235, .cls-236, .cls-237 {
        fill: none;
      }

      .cls-235, .cls-237 {
        stroke: #010101;
        stroke-miterlimit: 10;
      }

      .cls-39 {
        fill: #92732b;
      }

      .cls-40 {
        fill: #b19040;
      }

      .cls-41 {
        fill: #b9943f;
      }

      .cls-42 {
        fill: #b48f3a;
      }

      .cls-43 {
        fill: #ab8939;
      }

      .cls-44 {
        fill: #9f8030;
      }

      .cls-45 {
        fill: #be9b4b;
      }

      .cls-46 {
        fill: #ba9747;
      }

      .cls-47 {
        fill: #be9842;
      }

      .cls-48 {
        fill: #c29c45;
      }

      .cls-49 {
        fill: #be9a49;
      }

      .cls-50 {
        fill: #8e732c;
      }

      .cls-51 {
        fill: #c6a049;
      }

      .cls-52 {
        fill: #8f6f2a;
      }

      .cls-53 {
        fill: #a5822f;
      }

      .cls-54 {
        fill: #ad8c3c;
      }

      .cls-55 {
        fill: #95742b;
      }

      .cls-56 {
        fill: #c49e4e;
      }

      .cls-57 {
        fill: #bf9944;
      }

      .cls-58 {
        fill: #a88636;
      }

      .cls-59 {
        fill: #92722b;
      }

      .cls-60 {
        fill: #a98837;
      }

      .cls-61 {
        fill: #b38f3b;
      }

      .cls-62 {
        fill: #8e702a;
      }

      .cls-63 {
        fill: #96752c;
      }

      .cls-64 {
        fill: #c39e4e;
      }

      .cls-65 {
        fill: #9e7f2e;
      }

      .cls-66 {
        fill: #a5822e;
      }

      .cls-67 {
        fill: #b28e39;
      }

      .cls-68 {
        fill: #9a7b2d;
      }

      .cls-69 {
        fill: #8b6c2a;
      }

      .cls-70 {
        fill: #b6923d;
      }

      .cls-71 {
        fill: #c29c4e;
      }

      .cls-72 {
        fill: #b99545;
      }

      .cls-73 {
        fill: #96792d;
      }

      .cls-74 {
        fill: #8d6d2a;
      }

      .cls-75 {
        fill: #8d6e2a;
      }

      .cls-76 {
        fill: #c09b4c;
      }

      .cls-77 {
        fill: #a38333;
      }

      .cls-78 {
        fill: #9f812f;
      }

      .cls-79 {
        fill: #cba44d;
      }

      .cls-80 {
        fill: #ae8b37;
      }

      .cls-81 {
        fill: #987b2d;
      }

      .cls-238 {
        fill: #030303;
      }

      .cls-82 {
        fill: #ba9748;
      }

      .cls-83 {
        fill: #ae8d3d;
      }

      .cls-84 {
        fill: #bc9849;
      }

      .cls-85 {
        fill: #bb9640;
      }

      .cls-86 {
        fill: #c49e47;
      }

      .cls-87 {
        fill: #bb9741;
      }

      .cls-88 {
        fill: #b99546;
      }

      .cls-89 {
        fill: #af8b38;
      }

      .cls-90 {
        fill: #94772c;
      }

      .cls-239 {
        clip-path: url(#clippath-1);
      }

      .cls-91 {
        fill: #ac8834;
      }

      .cls-92 {
        fill: #b89445;
      }

      .cls-93 {
        fill: #b69343;
      }

      .cls-94 {
        fill: #a5832f;
      }

      .cls-95 {
        fill: #9d7c2d;
      }

      .cls-237 {
        stroke-width: .79px;
      }

      .cls-96 {
        fill: #bf9a4b;
      }

      .cls-97 {
        fill: #93732b;
      }

      .cls-98 {
        fill: #b9953e;
      }

      .cls-99 {
        fill: #ab893a;
      }

      .cls-100 {
        fill: #93762c;
      }

      .cls-101 {
        fill: #bf9a4a;
      }

      .cls-102 {
        fill: #98772c;
      }

      .cls-103 {
        fill: #8c6d2a;
      }

      .cls-104 {
        fill: #c7a151;
      }

      .cls-105 {
        fill: #ba9540;
      }

      .cls-106 {
        fill: #aa8734;
      }

      .cls-107 {
        fill: #ad8936;
      }

      .cls-108 {
        fill: #b49142;
      }

      .cls-109 {
        fill: #a3802d;
      }

      .cls-110 {
        fill: #97762c;
      }

      .cls-111 {
        fill: #a68635;
      }

      .cls-112 {
        fill: #c7a152;
      }

      .cls-113 {
        fill: #9c7c2d;
      }

      .cls-114 {
        fill: #8a6b29;
      }

      .cls-115 {
        fill: #cca54e;
      }

      .cls-116 {
        fill: #c19c44;
      }

      .cls-117 {
        fill: #a68535;
      }

      .cls-118 {
        fill: #a98939;
      }

      .cls-119 {
        fill: #ae8a36;
      }

      .cls-120 {
        fill: #8d712b;
      }

      .cls-121 {
        fill: #99792c;
      }

      .cls-122 {
        fill: #9b7e2e;
      }

      .cls-123 {
        fill: #a78330;
      }

      .cls-124 {
        fill: #a28231;
      }

      .cls-125 {
        fill: #9e7f2f;
      }

      .cls-126 {
        fill: #ab8936;
      }

      .cls-127 {
        fill: #b18f3f;
      }

      .cls-128 {
        fill: #b39041;
      }

      .cls-129 {
        fill: #c49f4f;
      }

      .cls-130 {
        fill: #ad8a36;
      }

      .cls-131 {
        fill: #a98938;
      }

      .cls-132 {
        fill: #95782c;
      }

      .cls-133 {
        fill: #ad8b3c;
      }

      .cls-134 {
        fill: #a88838;
      }

      .cls-135 {
        fill: #95782d;
      }

      .cls-136 {
        fill: #b89545;
      }

      .cls-137 {
        fill: #9f7d2d;
      }

      .cls-138 {
        fill: #a17f2d;
      }

      .cls-139 {
        fill: #c8a24b;
      }

      .cls-140 {
        fill: #be9a44;
      }

      .cls-141 {
        fill: #9c7d2d;
      }

      .cls-142 {
        fill: #8c6c2a;
      }

      .cls-143 {
        fill: #b28f40;
      }

      .cls-144 {
        fill: #a88430;
      }

      .cls-145 {
        fill: #b99540;
      }

      .cls-146 {
        fill: #bf9943;
      }

      .cls-147 {
        fill: #ac8a3b;
      }

      .cls-148 {
        fill: #9a792c;
      }

      .cls-149 {
        fill: #a58635;
      }

      .cls-150 {
        fill: #a68433;
      }

      .cls-151 {
        fill: #90702b;
      }

      .cls-152 {
        fill: #8f732b;
      }

      .cls-153 {
        fill: #bd9742;
      }

      .cls-154 {
        fill: #8e722c;
      }

      .cls-155 {
        fill: #b5903c;
      }

      .cls-156 {
        fill: #b8933e;
      }

      .cls-157 {
        fill: #96762c;
      }

      .cls-158 {
        fill: #9e7d2d;
      }

      .cls-159 {
        fill: #a27f2d;
      }

      .cls-160 {
        fill: #9b7d2d;
      }

      .cls-161 {
        fill: #9d7f2e;
      }

      .cls-162 {
        fill: #aa8633;
      }

      .cls-163 {
        fill: #8f742c;
      }

      .cls-164 {
        fill: #a48433;
      }

      .cls-165 {
        fill: #b18d39;
      }

      .cls-166 {
        fill: #a07e2d;
      }

      .cls-167 {
        fill: #b9943e;
      }

      .cls-168 {
        fill: #91752c;
      }

      .cls-169 {
        fill: #987a2d;
      }

      .cls-170 {
        fill: #a07d2d;
      }

      .cls-171 {
        fill: #c4a050;
      }

      .cls-172 {
        fill: #c19c46;
      }

      .cls-173 {
        fill: #95752c;
      }

      .cls-174 {
        fill: #a58533;
      }

      .cls-175 {
        fill: #bd9841;
      }

      .cls-176 {
        fill: #8f702b;
      }

      .cls-177 {
        fill: #be9a4a;
      }

      .cls-178 {
        fill: #c6a14b;
      }

      .cls-179 {
        fill: #b48f3c;
      }

      .cls-180 {
        fill: #c09c4d;
      }

      .cls-181 {
        fill: #a68430;
      }

      .cls-182 {
        fill: #ba9647;
      }

      .cls-183 {
        fill: #ae8a38;
      }

      .cls-184 {
        fill: #c59e47;
      }

      .cls-185 {
        fill: #a88431;
      }

      .cls-186 {
        fill: #aa8733;
      }

      .cls-187 {
        fill: #9d7e2e;
      }

      .cls-188 {
        fill: #c8a253;
      }

      .cls-189 {
        fill: #b69344;
      }

      .cls-190 {
        fill: #a98633;
      }

      .cls-240 {
        fill: #010101;
      }

      .cls-191 {
        fill: #ae8c3d;
      }

      .cls-192 {
        fill: #b49242;
      }

      .cls-193 {
        fill: #997b2d;
      }

      .cls-194 {
        fill: #b7933d;
      }

      .cls-195 {
        fill: #b59242;
      }

      .cls-196 {
        fill: #caa44d;
      }

      .cls-197 {
        fill: #c29c46;
      }

      .cls-198 {
        fill: #a08030;
      }

      .cls-199 {
        fill: #c8a14b;
      }

      .cls-200 {
        fill: #af8b37;
      }

      .cls-201 {
        fill: #98782c;
      }

      .cls-202 {
        fill: #94782d;
      }

      .cls-241 {
        clip-path: url(#clippath-2);
      }

      .cls-203 {
        fill: #8e722b;
      }

      .cls-204 {
        fill: #af8c38;
      }

      .cls-205 {
        fill: #bd9949;
      }

      .cls-206 {
        fill: #90712b;
      }

      .cls-207 {
        fill: #c59f49;
      }

      .cls-208 {
        fill: #9a7a2d;
      }

      .cls-209 {
        fill: #be9943;
      }

      .cls-210 {
        fill: #99782c;
      }

      .cls-211 {
        fill: #a88736;
      }

      .cls-212 {
        fill: #a6842f;
      }

      .cls-213 {
        fill: #ab8a3b;
      }

      .cls-214 {
        fill: #a88532;
      }

      .cls-215 {
        fill: #ac8b3b;
      }

      .cls-216 {
        fill: #9f7f2f;
      }

      .cls-217 {
        fill: #b08b38;
      }

      .cls-218 {
        fill: #b18f40;
      }

      .cls-219 {
        fill: #bf9a44;
      }

      .cls-242 {
        clip-path: url(#clippath);
      }

      .cls-220 {
        fill: #b08e3e;
      }

      .cls-221 {
        fill: #be9843;
      }

      .cls-222 {
        fill: #a28331;
      }

      .cls-223 {
        fill: #b28d3a;
      }

      .cls-224 {
        fill: #bc9948;
      }

      .cls-225 {
        fill: #b79344;
      }

      .cls-226 {
        fill: #a18130;
      }

      .cls-227 {
        fill: #c09b4b;
      }

      .cls-228 {
        fill: #caa34c;
      }

      .cls-229 {
        fill: #caa34d;
      }

      .cls-230 {
        fill: #a3812e;
      }

      .cls-231 {
        fill: #c19b44;
      }

      .cls-232 {
        fill: #c8a14a;
      }

      .cls-233 {
        fill: #bb9641;
      }
    </style>
    <clipPath id="clippath">
      <path class="cls-236" d="M1465.71,198.6l-14.23-26.19h-34.3l45.39,83.5v67.88h30.12v-75.14l-26.95-50.07-.02.02ZM1004.17,238.53l-72.6-66.1v151.38h30.33v-82.81l90.82,82.81v-40.8l-48.55-44.48h0ZM1052.7,255.02v-82.61h-30.33v54.51l30.33,28.1ZM689.73,178.37c9.19,3.99,17.25,9.4,24.2,16.21l-21.38,21.41c-9.03-8.9-19.72-13.35-32.11-13.35s-23.23,4.48-32.07,13.39c-8.88,8.9-13.32,19.63-13.32,32.09s4.44,23.18,13.32,32.04c8.84,8.86,19.5,13.3,32.07,13.3s23.23-4.44,32.11-13.35l21.38,21.43c-6.93,6.85-15.01,12.31-24.2,16.29-9.14,3.99-18.94,5.96-29.31,5.96-20.89,0-38.69-7.39-53.49-22.21s-22.21-32.63-22.21-53.47,7.41-38.61,22.21-53.47c14.8-14.82,32.63-22.23,53.49-22.23,10.36,0,20.17,1.97,29.31,5.96ZM825.99,179.56l-3.31-7.15-3.16,7.06-64.85,144.34h32.33l9.75-21.58.52-1.15h27.41l-13.74-30.2.04-.04h-.15l11.94-26.48,11.85,26.48h-.04l24.09,52.97h32.22l-64.89-144.25ZM1366.79,255.76c6.43-8.99,9.64-19.11,9.64-30.38,0-14.54-5.26-27-15.62-37.4-10.36-10.38-22.88-15.6-37.48-15.6h-1.62v30.25h1.62c6.22,0,11.63,2.21,16.03,6.74,4.48,4.46,6.69,9.81,6.69,16.01s-2.19,11.61-6.69,16.05c-4.4,4.44-9.79,6.69-16.03,6.69h-22.62v-45.48h.11v-30.25h-30.48v151.38h30.38v-55.4l38.65,55.4h37.07l-34.21-48.92c9.94-3.77,18.13-10.14,24.55-19.13l.02.02ZM1164.78,179.56l-3.31-7.15-3.16,7.06-64.85,144.34h32.33l9.75-21.58.46-1.15h27.47l-13.74-30.2.04-.04h-.15l11.94-26.48,11.85,26.48h-.04l24.09,52.97h32.22l-64.89-144.25h0ZM1504.93,227.57l33.24-55.16h-34.51l-14.15,26.11,15.43,29.05Z"/>
    </clipPath>
    <clipPath id="clippath-1">
      <path class="cls-236" d="M89.05,147.99c-13.89,19.28-28.06,28.45-28.06,55.62,0,16.57,6.98,33.13,20.95,45.76l79.88,72.88h118.51c-63.85-58.02-127.52-116.17-191.31-174.28l.02.02Z"/>
    </clipPath>
    <clipPath id="clippath-2">
      <path class="cls-236" d="M61.02,125.76v77.87c0-44.05,98.86-116.99,133.01-148.22-146.01,0-133.01-6.39-133.01,70.35Z"/>
    </clipPath>
  </defs>
  <g>
    <g>
      <polygon class="cls-240" points="1021.76 53.75 1016.37 67.26 999.4 67.26 999.4 121.41 985.88 121.41 985.88 67.26 968.94 67.26 974.4 53.75 1021.76 53.75"/>
      <polygon class="cls-240" points="1052.31 53.75 1052.31 80.81 1072.61 80.81 1072.61 53.75 1086.15 53.75 1086.15 121.41 1072.61 121.41 1072.61 94.32 1052.31 94.32 1052.31 121.41 1038.77 121.41 1038.77 53.75 1052.31 53.75"/>
      <polygon class="cls-240" points="1153.94 53.75 1148.48 67.26 1126.88 67.26 1126.88 80.81 1147.16 80.81 1141.75 94.32 1126.88 94.32 1126.88 107.84 1153.94 107.84 1148.48 121.41 1113.36 121.41 1113.36 53.75 1153.94 53.75"/>
      <g class="cls-242">
        <g>
          <polyline class="cls-188" points="1538.16 172.41 1538.16 172.23 596.35 91.49 596.35 91.66"/>
          <polyline class="cls-188" points="1538.21 171.91 1538.1 172.91 596.31 92.16 596.42 91.16"/>
          <polyline class="cls-188" points="1538.16 172.58 1538.05 173.58 596.27 92.83 596.35 91.83"/>
          <polyline class="cls-188" points="1538.1 173.23 1538.01 174.25 596.2 93.5 596.27 92.48"/>
          <polyline class="cls-188" points="1538.01 173.9 1537.95 174.92 596.16 94.15 596.2 93.16"/>
          <polyline class="cls-112" points="1537.95 174.57 1537.9 175.57 596.09 94.82 596.16 93.83"/>
          <polyline class="cls-104" points="1537.9 175.25 1537.86 176.24 596.01 95.49 596.09 94.5"/>
          <polyline class="cls-104" points="1537.86 175.92 1537.75 176.91 595.94 96.17 596.05 95.15"/>
          <polyline class="cls-104" points="1537.79 176.59 1537.69 177.59 595.9 96.84 596.01 95.82"/>
          <polyline class="cls-32" points="1537.75 177.24 1537.64 178.26 595.86 97.49 595.94 96.49"/>
          <polyline class="cls-32" points="1537.69 177.91 1537.6 178.91 595.79 98.16 595.9 97.16"/>
          <polyline class="cls-24" points="1537.64 178.58 1537.53 179.58 595.75 98.83 595.86 97.83"/>
          <polyline class="cls-24" points="1537.53 179.25 1537.49 180.25 595.7 99.5 595.75 98.51"/>
          <polyline class="cls-24" points="1537.49 179.9 1537.45 180.92 595.64 100.17 595.7 99.16"/>
          <polyline class="cls-171" points="1537.45 180.58 1537.38 181.57 595.55 100.82 595.64 99.83"/>
          <polyline class="cls-171" points="1537.38 181.25 1537.3 182.24 595.49 101.5 595.6 100.5"/>
          <polyline class="cls-171" points="1537.34 181.92 1537.23 182.92 595.44 102.17 595.55 101.17"/>
          <polyline class="cls-129" points="1537.3 182.59 1537.19 183.59 595.38 102.84 595.49 101.82"/>
          <polyline class="cls-129" points="1537.23 183.24 1537.14 184.26 595.34 103.49 595.44 102.49"/>
          <polyline class="cls-129" points="1537.19 183.91 1537.08 184.91 595.29 104.16 595.38 103.16"/>
          <polyline class="cls-129" points="1537.14 184.58 1537.04 185.58 595.23 104.83 595.29 103.84"/>
          <polyline class="cls-129" points="1537.04 185.26 1536.97 186.25 595.18 105.5 595.23 104.51"/>
          <polyline class="cls-20" points="1536.97 185.93 1536.93 186.92 595.14 106.18 595.18 105.18"/>
          <polyline class="cls-56" points="1536.93 186.58 1536.82 187.6 595.03 106.83 595.14 105.83"/>
          <polyline class="cls-64" points="1536.88 187.25 1536.78 188.25 594.99 107.5 595.08 106.5"/>
          <polyline class="cls-64" points="1536.82 187.92 1536.73 188.92 594.92 108.17 595.03 107.17"/>
          <polyline class="cls-64" points="1536.78 188.59 1536.67 189.59 594.88 108.84 594.99 107.84"/>
          <polyline class="cls-64" points="1536.73 189.26 1536.62 190.26 594.84 109.51 594.92 108.49"/>
          <polyline class="cls-71" points="1536.67 189.94 1536.58 190.91 594.77 110.16 594.84 109.17"/>
          <polyline class="cls-26" points="1536.58 190.59 1536.52 191.58 594.73 110.83 594.77 109.84"/>
          <polyline class="cls-26" points="1536.52 191.26 1536.47 192.25 594.66 111.51 594.73 110.51"/>
          <polyline class="cls-26" points="1536.47 191.93 1536.43 192.93 594.58 112.18 594.66 111.18"/>
          <polyline class="cls-26" points="1536.43 192.6 1536.32 193.6 594.51 112.83 594.62 111.83"/>
          <polyline class="cls-180" points="1536.36 193.25 1536.26 194.27 594.47 113.5 594.58 112.5"/>
          <polyline class="cls-180" points="1536.32 193.92 1536.21 194.92 594.43 114.17 594.51 113.17"/>
          <polyline class="cls-17" points="1536.26 194.59 1536.17 195.59 594.36 114.84 594.47 113.85"/>
          <polyline class="cls-17" points="1536.21 195.27 1536.1 196.26 594.32 115.51 594.36 114.52"/>
          <polyline class="cls-17" points="1536.1 195.94 1536.06 196.93 594.27 116.19 594.32 115.17"/>
          <polyline class="cls-17" points="1536.06 196.59 1536.02 197.58 594.21 116.84 594.27 115.84"/>
          <polyline class="cls-76" points="1536.02 197.26 1535.95 198.26 594.12 117.51 594.21 116.51"/>
          <polyline class="cls-76" points="1535.95 197.93 1535.87 198.93 594.06 118.18 594.17 117.18"/>
          <polyline class="cls-227" points="1535.91 198.6 1535.8 199.6 594.01 118.85 594.12 117.85"/>
          <polyline class="cls-227" points="1535.87 199.25 1535.76 200.27 593.97 119.5 594.06 118.5"/>
          <polyline class="cls-45" points="1535.8 199.92 1535.71 200.94 593.91 120.17 594.01 119.18"/>
          <polyline class="cls-45" points="1535.76 200.6 1535.65 201.59 593.86 120.84 593.97 119.85"/>
          <polyline class="cls-96" points="1535.71 201.27 1535.61 202.26 593.8 121.52 593.86 120.52"/>
          <polyline class="cls-96" points="1535.61 201.94 1535.54 202.94 593.75 122.19 593.8 121.17"/>
          <polyline class="cls-101" points="1535.54 202.59 1535.5 203.61 593.65 122.86 593.75 121.84"/>
          <polyline class="cls-177" points="1535.5 203.26 1535.39 204.26 593.6 123.51 593.71 122.51"/>
          <polyline class="cls-177" points="1535.45 203.93 1535.35 204.93 593.56 124.18 593.65 123.18"/>
          <polyline class="cls-177" points="1535.39 204.6 1535.3 205.6 593.49 124.85 593.6 123.86"/>
          <polyline class="cls-177" points="1535.35 205.28 1535.24 206.27 593.45 125.52 593.56 124.51"/>
          <polyline class="cls-49" points="1535.3 205.92 1535.19 206.94 593.41 126.17 593.49 125.18"/>
          <polyline class="cls-205" points="1535.24 206.6 1535.15 207.61 593.34 126.85 593.41 125.85"/>
          <polyline class="cls-205" points="1535.15 207.27 1535.09 208.26 593.3 127.52 593.34 126.52"/>
          <polyline class="cls-205" points="1535.09 207.94 1535.04 208.94 593.26 128.19 593.3 127.19"/>
          <polyline class="cls-205" points="1535.04 208.59 1535 209.61 593.15 128.86 593.26 127.84"/>
          <polyline class="cls-84" points="1535 209.26 1534.89 210.28 593.08 129.53 593.19 128.51"/>
          <polyline class="cls-224" points="1534.93 209.93 1534.83 210.93 593.04 130.18 593.15 129.19"/>
          <polyline class="cls-224" points="1534.89 210.6 1534.78 211.6 593 130.85 593.08 129.86"/>
          <polyline class="cls-224" points="1534.83 211.28 1534.74 212.27 592.93 131.52 593.04 130.53"/>
          <polyline class="cls-224" points="1534.78 211.95 1534.67 212.94 592.89 132.2 592.93 131.18"/>
          <polyline class="cls-82" points="1534.67 212.6 1534.63 213.62 592.84 132.85 592.89 131.85"/>
          <polyline class="cls-82" points="1534.63 213.27 1534.59 214.27 592.78 133.52 592.84 132.52"/>
          <polyline class="cls-46" points="1534.59 213.94 1534.52 214.94 592.69 134.19 592.78 133.19"/>
          <polyline class="cls-46" points="1534.52 214.61 1534.44 215.61 592.63 134.86 592.74 133.86"/>
          <polyline class="cls-46" points="1534.48 215.28 1534.37 216.28 592.58 135.53 592.69 134.51"/>
          <polyline class="cls-46" points="1534.44 215.93 1534.33 216.93 592.54 136.18 592.63 135.19"/>
          <polyline class="cls-182" points="1534.37 216.61 1534.28 217.6 592.48 136.85 592.58 135.86"/>
          <polyline class="cls-182" points="1534.33 217.28 1534.22 218.27 592.43 137.53 592.54 136.53"/>
          <polyline class="cls-88" points="1534.28 217.95 1534.18 218.95 592.37 138.2 592.43 137.18"/>
          <polyline class="cls-88" points="1534.18 218.62 1534.11 219.62 592.32 138.85 592.37 137.85"/>
          <polyline class="cls-5" points="1534.11 219.27 1534.07 220.27 592.22 139.52 592.32 138.52"/>
          <polyline class="cls-5" points="1534.07 219.94 1533.96 220.94 592.17 140.19 592.28 139.19"/>
          <polyline class="cls-88" points="1534.02 220.61 1533.92 221.61 592.13 140.86 592.22 139.87"/>
          <polyline class="cls-88" points="1533.96 221.29 1533.87 222.28 592.06 141.53 592.17 140.54"/>
          <polyline class="cls-72" points="1533.92 221.94 1533.81 222.95 592.02 142.21 592.13 141.19"/>
          <polyline class="cls-136" points="1533.87 222.61 1533.76 223.6 591.98 142.86 592.06 141.86"/>
          <polyline class="cls-136" points="1533.81 223.28 1533.72 224.28 591.91 143.53 591.98 142.53"/>
          <polyline class="cls-136" points="1533.72 223.95 1533.66 224.95 591.87 144.2 591.91 143.2"/>
          <polyline class="cls-92" points="1533.66 224.62 1533.61 225.62 591.83 144.87 591.87 143.85"/>
          <polyline class="cls-31" points="1533.61 225.27 1533.5 226.29 591.72 145.52 591.83 144.52"/>
          <polyline class="cls-31" points="1533.57 225.94 1533.46 226.94 591.65 146.19 591.76 145.2"/>
          <polyline class="cls-31" points="1533.5 226.62 1533.42 227.61 591.61 146.86 591.72 145.87"/>
          <polyline class="cls-31" points="1533.46 227.29 1533.35 228.28 591.57 147.54 591.65 146.54"/>
          <polyline class="cls-225" points="1533.42 227.94 1533.31 228.96 591.5 148.21 591.61 147.21"/>
          <polyline class="cls-189" points="1533.35 228.61 1533.24 229.63 591.46 148.86 591.5 147.86"/>
          <polyline class="cls-93" points="1533.24 229.28 1533.2 230.28 591.41 149.53 591.46 148.53"/>
          <polyline class="cls-93" points="1533.2 229.95 1533.16 230.95 591.35 150.2 591.41 149.2"/>
          <polyline class="cls-93" points="1533.16 230.62 1533.09 231.62 591.26 150.87 591.35 149.88"/>
          <polyline class="cls-93" points="1533.09 231.3 1533.01 232.29 591.2 151.54 591.31 150.53"/>
          <polyline class="cls-16" points="1533.05 231.95 1532.94 232.96 591.15 152.19 591.26 151.2"/>
          <polyline class="cls-16" points="1533.01 232.62 1532.9 233.61 591.11 152.87 591.2 151.87"/>
          <polyline class="cls-195" points="1532.94 233.29 1532.85 234.29 591.05 153.54 591.15 152.54"/>
          <polyline class="cls-195" points="1532.9 233.96 1532.79 234.96 591 154.21 591.11 153.21"/>
          <polyline class="cls-195" points="1532.79 234.61 1532.75 235.63 590.94 154.88 591 153.86"/>
          <polyline class="cls-192" points="1532.75 235.28 1532.7 236.3 590.89 155.53 590.94 154.53"/>
          <polyline class="cls-108" points="1532.7 235.95 1532.64 236.95 590.79 156.2 590.89 155.21"/>
          <polyline class="cls-108" points="1532.64 236.63 1532.53 237.62 590.74 156.87 590.85 155.88"/>
          <polyline class="cls-108" points="1532.59 237.3 1532.49 238.29 590.7 157.55 590.79 156.53"/>
          <polyline class="cls-108" points="1532.53 237.97 1532.44 238.97 590.63 158.22 590.74 157.2"/>
          <polyline class="cls-1" points="1532.49 238.62 1532.38 239.62 590.59 158.87 590.7 157.87"/>
          <polyline class="cls-1" points="1532.44 239.29 1532.33 240.29 590.55 159.54 590.63 158.54"/>
          <polyline class="cls-128" points="1532.38 239.96 1532.29 240.96 590.48 160.21 590.55 159.21"/>
          <polyline class="cls-128" points="1532.29 240.63 1532.23 241.63 590.44 160.88 590.48 159.89"/>
          <polyline class="cls-40" points="1532.23 241.28 1532.18 242.3 590.33 161.53 590.44 160.54"/>
          <polyline class="cls-40" points="1532.18 241.96 1532.07 242.95 590.29 162.2 590.4 161.21"/>
          <polyline class="cls-40" points="1532.14 242.63 1532.03 243.62 590.22 162.88 590.33 161.88"/>
          <polyline class="cls-143" points="1532.07 243.3 1531.99 244.29 590.18 163.55 590.29 162.55"/>
          <polyline class="cls-143" points="1532.03 243.97 1531.92 244.97 590.14 164.22 590.22 163.2"/>
          <polyline class="cls-218" points="1531.99 244.64 1531.88 245.62 590.07 164.89 590.18 163.87"/>
          <polyline class="cls-127" points="1531.92 245.29 1531.81 246.29 590.03 165.54 590.07 164.54"/>
          <polyline class="cls-127" points="1531.81 245.96 1531.77 246.96 589.98 166.21 590.03 165.22"/>
          <polyline class="cls-127" points="1531.77 246.63 1531.73 247.63 589.92 166.88 589.98 165.89"/>
          <polyline class="cls-12" points="1531.73 247.31 1531.66 248.3 589.83 167.56 589.92 166.54"/>
          <polyline class="cls-34" points="1531.66 247.96 1531.58 248.97 589.77 168.21 589.88 167.21"/>
          <polyline class="cls-34" points="1531.62 248.63 1531.51 249.62 589.72 168.88 589.83 167.88"/>
          <polyline class="cls-220" points="1531.58 249.3 1531.47 250.3 589.68 169.55 589.77 168.55"/>
          <polyline class="cls-220" points="1531.51 249.97 1531.42 250.97 589.62 170.22 589.72 169.22"/>
          <polyline class="cls-220" points="1531.47 250.64 1531.36 251.64 589.57 170.89 589.62 169.87"/>
          <polyline class="cls-21" points="1531.36 251.29 1531.32 252.31 589.53 171.54 589.57 170.54"/>
          <polyline class="cls-21" points="1531.32 251.96 1531.27 252.96 589.47 172.21 589.53 171.22"/>
          <polyline class="cls-83" points="1531.27 252.64 1531.21 253.63 589.36 172.88 589.47 171.89"/>
          <polyline class="cls-83" points="1531.21 253.31 1531.1 254.3 589.31 173.56 589.42 172.56"/>
          <polyline class="cls-83" points="1531.16 253.98 1531.06 254.98 589.27 174.21 589.36 173.21"/>
          <polyline class="cls-83" points="1531.1 254.63 1531.01 255.65 589.21 174.88 589.31 173.88"/>
          <polyline class="cls-191" points="1531.06 255.3 1530.95 256.3 589.16 175.55 589.27 174.55"/>
          <polyline class="cls-191" points="1531.01 255.97 1530.9 256.97 589.12 176.22 589.21 175.22"/>
          <polyline class="cls-191" points="1530.95 256.64 1530.86 257.64 589.05 176.89 589.12 175.9"/>
          <polyline class="cls-54" points="1530.86 257.29 1530.8 258.31 589.01 177.56 589.05 176.55"/>
          <polyline class="cls-54" points="1530.8 257.97 1530.75 258.96 588.9 178.21 589.01 177.22"/>
          <polyline class="cls-133" points="1530.75 258.64 1530.64 259.63 588.86 178.89 588.97 177.89"/>
          <polyline class="cls-133" points="1530.71 259.31 1530.6 260.31 588.82 179.56 588.9 178.56"/>
          <polyline class="cls-133" points="1530.64 259.98 1530.56 260.98 588.75 180.23 588.86 179.23"/>
          <polyline class="cls-215" points="1530.6 260.63 1530.49 261.65 588.71 180.88 588.82 179.88"/>
          <polyline class="cls-215" points="1530.56 261.3 1530.45 262.32 588.64 181.55 588.75 180.55"/>
          <polyline class="cls-147" points="1530.49 261.97 1530.38 262.97 588.6 182.22 588.64 181.23"/>
          <polyline class="cls-213" points="1530.38 262.65 1530.34 263.64 588.56 182.89 588.6 181.9"/>
          <polyline class="cls-15" points="1530.34 263.32 1530.3 264.31 588.49 183.57 588.56 182.55"/>
          <polyline class="cls-99" points="1530.3 263.97 1530.23 264.99 588.4 184.24 588.49 183.22"/>
          <polyline class="cls-99" points="1530.23 264.64 1530.15 265.64 588.34 184.89 588.45 183.89"/>
          <polyline class="cls-43" points="1530.19 265.31 1530.08 266.31 588.3 185.56 588.4 184.56"/>
          <polyline class="cls-43" points="1530.15 265.98 1530.04 266.98 588.25 186.23 588.34 185.23"/>
          <polyline class="cls-118" points="1530.08 266.65 1529.99 267.65 588.19 186.9 588.3 185.88"/>
          <polyline class="cls-131" points="1530.04 267.3 1529.93 268.32 588.14 187.55 588.19 186.56"/>
          <polyline class="cls-134" points="1529.93 267.98 1529.89 268.97 588.1 188.22 588.14 187.23"/>
          <polyline class="cls-60" points="1529.89 268.65 1529.84 269.64 588.04 188.9 588.1 187.9"/>
          <polyline class="cls-60" points="1529.84 269.32 1529.78 270.32 587.93 189.57 588.04 188.57"/>
          <polyline class="cls-211" points="1529.78 269.99 1529.67 270.99 587.88 190.24 587.99 189.22"/>
          <polyline class="cls-58" points="1529.73 270.64 1529.63 271.66 587.84 190.91 587.93 189.89"/>
          <polyline class="cls-58" points="1529.67 271.31 1529.58 272.31 587.78 191.56 587.88 190.56"/>
          <polyline class="cls-111" points="1529.63 271.98 1529.52 272.98 587.73 192.23 587.84 191.24"/>
          <polyline class="cls-111" points="1529.58 272.66 1529.47 273.65 587.69 192.9 587.78 191.89"/>
          <polyline class="cls-117" points="1529.52 273.33 1529.43 274.32 587.62 193.58 587.69 192.56"/>
          <polyline class="cls-149" points="1529.43 273.98 1529.37 275 587.58 194.23 587.62 193.23"/>
          <polyline class="cls-174" points="1529.37 274.65 1529.32 275.65 587.47 194.9 587.58 193.9"/>
          <polyline class="cls-150" points="1529.32 275.32 1529.21 276.32 587.43 195.57 587.54 194.57"/>
          <polyline class="cls-164" points="1529.28 275.99 1529.17 276.99 587.39 196.24 587.47 195.24"/>
          <polyline class="cls-164" points="1529.21 276.64 1529.13 277.66 587.32 196.91 587.43 195.89"/>
          <polyline class="cls-77" points="1529.17 277.31 1529.06 278.31 587.28 197.56 587.39 196.57"/>
          <polyline class="cls-77" points="1529.13 277.99 1529.02 278.98 587.21 198.23 587.32 197.24"/>
          <polyline class="cls-77" points="1529.06 278.66 1528.98 279.65 587.17 198.91 587.21 197.91"/>
          <polyline class="cls-222" points="1528.98 279.33 1528.91 280.32 587.13 199.58 587.17 198.58"/>
          <polyline class="cls-124" points="1528.91 280 1528.87 281 587.06 200.23 587.13 199.23"/>
          <polyline class="cls-124" points="1528.87 280.65 1528.8 281.67 586.97 200.9 587.06 199.9"/>
          <polyline class="cls-8" points="1528.8 281.32 1528.72 282.32 586.91 201.57 587.02 200.57"/>
          <polyline class="cls-226" points="1528.76 281.99 1528.65 282.99 586.87 202.24 586.97 201.25"/>
          <polyline class="cls-226" points="1528.72 282.66 1528.61 283.66 586.82 202.91 586.91 201.92"/>
          <polyline class="cls-19" points="1528.65 283.31 1528.56 284.33 586.76 203.56 586.87 202.57"/>
          <polyline class="cls-19" points="1528.61 283.99 1528.5 284.98 586.71 204.24 586.76 203.24"/>
          <polyline class="cls-198" points="1528.5 284.66 1528.46 285.65 586.67 204.91 586.71 203.91"/>
          <polyline class="cls-44" points="1528.46 285.33 1528.41 286.33 586.61 205.58 586.67 204.58"/>
          <polyline class="cls-78" points="1528.41 286 1528.35 287 586.5 206.25 586.61 205.23"/>
          <polyline class="cls-216" points="1528.35 286.67 1528.26 287.67 586.45 206.9 586.56 205.9"/>
          <polyline class="cls-125" points="1528.3 287.32 1528.2 288.32 586.41 207.57 586.5 206.57"/>
          <polyline class="cls-65" points="1528.26 287.99 1528.15 288.99 586.35 208.24 586.45 207.25"/>
          <polyline class="cls-187" points="1528.2 288.67 1528.09 289.66 586.3 208.91 586.41 207.92"/>
          <polyline class="cls-187" points="1528.15 289.34 1528.04 290.33 586.26 209.59 586.35 208.59"/>
          <polyline class="cls-187" points="1528.04 289.99 1528 291.01 586.19 210.24 586.26 209.24"/>
          <polyline class="cls-161" points="1528 290.66 1527.94 291.66 586.15 210.91 586.19 209.91"/>
          <polyline class="cls-141" points="1527.94 291.33 1527.89 292.33 586.04 211.58 586.15 210.58"/>
          <polyline class="cls-141" points="1527.89 292 1527.78 293 586 212.25 586.11 211.25"/>
          <polyline class="cls-122" points="1527.85 292.67 1527.74 293.67 585.96 212.92 586.04 211.9"/>
          <polyline class="cls-113" points="1527.78 293.32 1527.7 294.32 585.89 213.57 586 212.58"/>
          <polyline class="cls-113" points="1527.74 294 1527.63 294.99 585.85 214.24 585.96 213.25"/>
          <polyline class="cls-160" points="1527.7 294.67 1527.59 295.66 585.78 214.92 585.89 213.92"/>
          <polyline class="cls-68" points="1527.63 295.34 1527.55 296.34 585.74 215.59 585.78 214.59"/>
          <polyline class="cls-68" points="1527.55 295.99 1527.48 297.01 585.7 216.26 585.74 215.24"/>
          <polyline class="cls-2" points="1527.48 296.66 1527.44 297.68 585.63 216.91 585.7 215.91"/>
          <polyline class="cls-2" points="1527.44 297.33 1527.33 298.33 585.54 217.58 585.63 216.58"/>
          <polyline class="cls-193" points="1527.37 298 1527.29 299 585.48 218.25 585.59 217.26"/>
          <polyline class="cls-193" points="1527.33 298.68 1527.22 299.67 585.44 218.92 585.54 217.91"/>
          <polyline class="cls-81" points="1527.29 299.35 1527.18 300.34 585.39 219.6 585.48 218.58"/>
          <polyline class="cls-169" points="1527.22 300 1527.13 300.99 585.33 220.25 585.44 219.25"/>
          <polyline class="cls-169" points="1527.18 300.67 1527.07 301.67 585.28 220.92 585.33 219.92"/>
          <polyline class="cls-169" points="1527.07 301.34 1527.03 302.34 585.24 221.59 585.28 220.59"/>
          <polyline class="cls-73" points="1527.03 302.01 1526.98 303.01 585.18 222.26 585.24 221.26"/>
          <polyline class="cls-73" points="1526.98 302.66 1526.92 303.68 585.09 222.91 585.18 221.91"/>
          <polyline class="cls-73" points="1526.92 303.33 1526.83 304.33 585.02 223.58 585.13 222.59"/>
          <polyline class="cls-135" points="1526.87 304.01 1526.77 305 584.98 224.25 585.09 223.26"/>
          <polyline class="cls-132" points="1526.83 304.68 1526.72 305.67 584.92 224.93 585.02 223.93"/>
          <polyline class="cls-132" points="1526.77 305.35 1526.66 306.35 584.87 225.6 584.98 224.58"/>
          <polyline class="cls-202" points="1526.72 306 1526.61 307.02 584.83 226.27 584.87 225.25"/>
          <polyline class="cls-90" points="1526.61 306.67 1526.57 307.67 584.76 226.92 584.83 225.92"/>
          <polyline class="cls-90" points="1526.57 307.34 1526.51 308.34 584.72 227.59 584.76 226.59"/>
          <polyline class="cls-90" points="1526.51 308.01 1526.46 309.01 584.61 228.26 584.72 227.27"/>
          <polyline class="cls-90" points="1526.46 308.69 1526.35 309.68 584.57 228.93 584.68 227.94"/>
          <polyline class="cls-100" points="1526.42 309.34 1526.31 310.35 584.53 229.58 584.61 228.59"/>
          <polyline class="cls-100" points="1526.35 310.01 1526.27 311 584.46 230.26 584.57 229.26"/>
          <polyline class="cls-100" points="1526.31 310.68 1526.2 311.68 584.42 230.93 584.53 229.93"/>
          <polyline class="cls-168" points="1526.27 311.35 1526.16 312.35 584.37 231.6 584.46 230.6"/>
          <polyline class="cls-168" points="1526.2 312.02 1526.12 313.02 584.31 232.27 584.37 231.25"/>
          <polyline class="cls-168" points="1526.12 312.67 1526.05 313.67 584.27 232.92 584.31 231.92"/>
          <polyline class="cls-11" points="1526.05 313.34 1526.01 314.34 584.16 233.59 584.27 232.6"/>
          <polyline class="cls-11" points="1526.01 314.02 1525.9 315.01 584.11 234.26 584.2 233.27"/>
          <polyline class="cls-11" points="1525.94 314.69 1525.86 315.68 584.05 234.94 584.16 233.94"/>
          <polyline class="cls-163" points="1525.9 315.36 1525.79 316.36 584.01 235.61 584.11 234.59"/>
          <polyline class="cls-152" points="1525.86 316.01 1525.75 317.03 583.96 236.26 584.05 235.26"/>
          <polyline class="cls-152" points="1525.79 316.68 1525.7 317.68 583.9 236.93 584.01 235.93"/>
          <polyline class="cls-50" points="1525.75 317.35 1525.64 318.35 583.85 237.6 583.9 236.6"/>
          <polyline class="cls-203" points="1525.64 318.02 1525.6 319.02 583.81 238.27 583.85 237.28"/>
          <polyline class="cls-154" points="1525.6 318.69 1525.55 319.69 583.75 238.94 583.81 237.93"/>
          <polyline class="cls-154" points="1525.55 319.34 1525.49 320.34 583.66 239.59 583.75 238.6"/>
          <polyline class="cls-120" points="1525.49 320.02 1525.4 321.01 583.59 240.27 583.7 239.27"/>
          <polyline class="cls-33" points="1525.44 320.69 1525.34 321.68 583.55 240.94 583.66 239.94"/>
          <polyline class="cls-33" points="1525.4 321.36 1525.29 322.36 583.49 241.61 583.59 240.59"/>
          <polyline class="cls-33" points="1525.34 322.01 1525.23 323.03 583.44 242.26 583.55 241.26"/>
          <polyline class="cls-6" points="1525.29 322.68 1525.18 323.7 583.4 242.93 583.44 241.93"/>
          <polyline class="cls-6" points="1525.18 323.35 1518.71 399.18 576.92 318.43 583.4 242.61"/>
        </g>
      </g>
    </g>
    <g>
      <g class="cls-239">
        <g>
          <polyline class="cls-115" points="191.81 392.62 171.82 367.42 260.36 297.09 280.36 322.27"/>
          <polyline class="cls-115" points="172.05 367.72 171.36 366.84 259.89 296.49 260.6 297.38"/>
          <polyline class="cls-115" points="171.58 367.14 170.88 366.25 259.43 295.9 260.12 296.79"/>
          <polyline class="cls-79" points="171.12 366.53 170.41 365.67 258.95 295.32 259.65 296.21"/>
          <polyline class="cls-79" points="170.65 365.95 169.93 365.06 258.48 294.73 259.19 295.6"/>
          <polyline class="cls-79" points="170.17 365.36 169.48 364.47 258.02 294.13 258.72 295.01"/>
          <polyline class="cls-79" points="169.71 364.78 169 363.89 257.55 293.54 258.26 294.43"/>
          <polyline class="cls-196" points="169.24 364.19 168.54 363.3 257.07 292.96 257.78 293.84"/>
          <polyline class="cls-229" points="168.76 363.59 168.07 362.7 256.61 292.37 257.31 293.26"/>
          <polyline class="cls-228" points="168.31 363 167.59 362.11 256.14 291.76 256.83 292.65"/>
          <polyline class="cls-228" points="167.83 362.42 167.14 361.53 255.66 291.18 256.38 292.07"/>
          <polyline class="cls-228" points="167.37 361.83 166.66 360.94 255.21 290.59 255.9 291.48"/>
          <polyline class="cls-139" points="166.9 361.22 166.18 360.36 254.73 290.01 255.44 290.9"/>
          <polyline class="cls-199" points="166.42 360.64 165.73 359.75 254.28 289.4 254.97 290.29"/>
          <polyline class="cls-199" points="165.94 360.05 165.25 359.17 253.8 288.82 254.49 289.71"/>
          <polyline class="cls-232" points="165.49 359.47 164.77 358.58 253.32 288.23 254.04 289.12"/>
          <polyline class="cls-178" points="165.01 358.86 164.32 358 252.85 287.65 253.56 288.54"/>
          <polyline class="cls-178" points="164.56 358.28 163.84 357.39 252.39 287.06 253.08 287.93"/>
          <polyline class="cls-13" points="164.08 357.69 163.39 356.8 251.91 286.46 252.63 287.34"/>
          <polyline class="cls-13" points="163.6 357.11 162.91 356.22 251.46 285.87 252.15 286.76"/>
          <polyline class="cls-51" points="163.15 356.5 162.43 355.63 250.98 285.29 251.68 286.17"/>
          <polyline class="cls-207" points="162.67 355.92 161.98 355.03 250.51 284.7 251.22 285.57"/>
          <polyline class="cls-207" points="162.2 355.33 161.5 354.44 250.05 284.09 250.74 284.98"/>
          <polyline class="cls-207" points="161.74 354.75 161.03 353.86 249.57 283.51 250.29 284.4"/>
          <polyline class="cls-207" points="161.26 354.16 160.57 353.27 249.12 282.92 249.81 283.81"/>
          <polyline class="cls-207" points="160.81 353.56 160.09 352.67 248.64 282.32 249.34 283.23"/>
          <polyline class="cls-184" points="160.33 352.97 159.62 352.08 248.17 281.73 248.88 282.62"/>
          <polyline class="cls-184" points="159.86 352.39 159.16 351.5 247.69 281.15 248.4 282.04"/>
          <polyline class="cls-184" points="159.4 351.78 158.69 350.91 247.23 280.56 247.93 281.45"/>
          <polyline class="cls-37" points="158.92 351.19 158.21 350.31 246.76 279.98 247.47 280.87"/>
          <polyline class="cls-86" points="158.45 350.61 157.75 349.72 246.3 279.37 247 280.26"/>
          <polyline class="cls-86" points="157.99 350.02 157.28 349.14 245.83 278.79 246.52 279.68"/>
          <polyline class="cls-86" points="157.52 349.42 156.82 348.55 245.35 278.2 246.06 279.09"/>
          <polyline class="cls-86" points="157.04 348.83 156.35 347.94 244.89 277.62 245.59 278.48"/>
          <polyline class="cls-27" points="156.58 348.25 155.87 347.36 244.42 277.01 245.13 277.9"/>
          <polyline class="cls-197" points="156.11 347.66 155.41 346.77 243.94 276.43 244.66 277.31"/>
          <polyline class="cls-197" points="155.63 347.08 154.94 346.19 243.49 275.84 244.18 276.73"/>
          <polyline class="cls-48" points="155.18 346.47 154.46 345.58 243.01 275.26 243.72 276.14"/>
          <polyline class="cls-48" points="154.7 345.89 154.01 345 242.53 274.65 243.25 275.54"/>
          <polyline class="cls-172" points="154.24 345.3 153.53 344.41 242.08 274.06 242.77 274.95"/>
          <polyline class="cls-172" points="153.77 344.72 153.05 343.83 241.6 273.48 242.32 274.37"/>
          <polyline class="cls-172" points="153.29 344.11 152.6 343.24 241.15 272.89 241.84 273.78"/>
          <polyline class="cls-172" points="152.84 343.52 152.12 342.64 240.67 272.29 241.36 273.18"/>
          <polyline class="cls-116" points="152.36 342.94 151.64 342.05 240.19 271.7 240.91 272.59"/>
          <polyline class="cls-231" points="151.88 342.35 151.19 341.47 239.74 271.12 240.43 272.01"/>
          <polyline class="cls-231" points="151.43 341.75 150.71 340.88 239.26 270.53 239.95 271.42"/>
          <polyline class="cls-231" points="150.95 341.16 150.26 340.27 238.78 269.95 239.5 270.81"/>
          <polyline class="cls-231" points="150.47 340.58 149.78 339.69 238.33 269.34 239.02 270.23"/>
          <polyline class="cls-29" points="150.02 339.99 149.3 339.1 237.85 268.76 238.55 269.64"/>
          <polyline class="cls-219" points="149.54 339.39 148.85 338.52 237.38 268.17 238.09 269.06"/>
          <polyline class="cls-219" points="149.07 338.8 148.37 337.91 236.92 267.59 237.61 268.45"/>
          <polyline class="cls-219" points="148.61 338.22 147.9 337.33 236.44 266.98 237.16 267.87"/>
          <polyline class="cls-219" points="148.13 337.63 147.44 336.74 235.97 266.39 236.68 267.28"/>
          <polyline class="cls-140" points="147.68 337.05 146.96 336.16 235.51 265.81 236.21 266.7"/>
          <polyline class="cls-57" points="147.2 336.44 146.49 335.55 235.04 265.22 235.75 266.11"/>
          <polyline class="cls-146" points="146.73 335.85 146.03 334.97 234.56 264.62 235.27 265.51"/>
          <polyline class="cls-146" points="146.27 335.27 145.56 334.38 234.1 264.03 234.8 264.92"/>
          <polyline class="cls-209" points="145.79 334.66 145.08 333.8 233.63 263.45 234.34 264.34"/>
          <polyline class="cls-209" points="145.32 334.08 144.62 333.21 233.17 262.86 233.87 263.75"/>
          <polyline class="cls-221" points="144.86 333.49 144.15 332.6 232.7 262.26 233.39 263.14"/>
          <polyline class="cls-47" points="144.39 332.91 143.69 332.02 232.22 261.67 232.93 262.56"/>
          <polyline class="cls-47" points="143.91 332.3 143.22 331.43 231.76 261.09 232.46 261.97"/>
          <polyline class="cls-175" points="143.45 331.72 142.74 330.83 231.29 260.5 231.98 261.39"/>
          <polyline class="cls-175" points="142.98 331.13 142.29 330.24 230.81 259.89 231.53 260.78"/>
          <polyline class="cls-153" points="142.52 330.55 141.81 329.66 230.36 259.31 231.05 260.2"/>
          <polyline class="cls-153" points="142.05 329.96 141.33 329.07 229.88 258.72 230.59 259.61"/>
          <polyline class="cls-87" points="141.57 329.35 140.88 328.47 229.4 258.14 230.12 259.03"/>
          <polyline class="cls-87" points="141.09 328.77 140.4 327.88 228.95 257.53 229.64 258.42"/>
          <polyline class="cls-87" points="140.64 328.18 139.92 327.3 228.47 256.95 229.19 257.84"/>
          <polyline class="cls-85" points="140.16 327.6 139.47 326.71 228.02 256.36 228.71 257.25"/>
          <polyline class="cls-85" points="139.71 326.99 138.99 326.13 227.54 255.78 228.23 256.67"/>
          <polyline class="cls-233" points="139.23 326.41 138.54 325.52 227.06 255.19 227.78 256.06"/>
          <polyline class="cls-85" points="138.75 325.82 138.06 324.93 226.61 254.59 227.3 255.47"/>
          <polyline class="cls-85" points="138.3 325.24 137.58 324.35 226.13 254 226.82 254.89"/>
          <polyline class="cls-105" points="137.82 324.63 137.13 323.76 225.65 253.42 226.37 254.3"/>
          <polyline class="cls-105" points="137.35 324.05 136.65 323.16 225.2 252.83 225.89 253.7"/>
          <polyline class="cls-145" points="136.89 323.46 136.18 322.57 224.72 252.22 225.44 253.11"/>
          <polyline class="cls-98" points="136.41 322.88 135.72 321.99 224.25 251.64 224.96 252.53"/>
          <polyline class="cls-98" points="135.94 322.27 135.24 321.4 223.79 251.05 224.48 251.94"/>
          <polyline class="cls-98" points="135.48 321.68 134.77 320.8 223.31 250.47 224.03 251.34"/>
          <polyline class="cls-41" points="135.01 321.1 134.31 320.21 222.84 249.86 223.55 250.75"/>
          <polyline class="cls-41" points="134.55 320.51 133.84 319.63 222.38 249.28 223.08 250.17"/>
          <polyline class="cls-41" points="134.07 319.93 133.38 319.04 221.91 248.69 222.62 249.58"/>
          <polyline class="cls-167" points="133.6 319.32 132.9 318.43 221.45 248.11 222.14 249"/>
          <polyline class="cls-167" points="133.14 318.74 132.43 317.85 220.97 247.5 221.67 248.39"/>
          <polyline class="cls-156" points="132.67 318.15 131.95 317.26 220.5 246.92 221.21 247.8"/>
          <polyline class="cls-156" points="132.19 317.55 131.5 316.68 220.04 246.33 220.74 247.22"/>
          <polyline class="cls-156" points="131.73 316.96 131.02 316.1 219.57 245.75 220.26 246.63"/>
          <polyline class="cls-156" points="131.26 316.38 130.56 315.49 219.09 245.16 219.8 246.03"/>
          <polyline class="cls-194" points="130.78 315.79 130.09 314.9 218.63 244.55 219.33 245.44"/>
          <polyline class="cls-28" points="130.33 315.21 129.61 314.32 218.16 243.97 218.85 244.86"/>
          <polyline class="cls-28" points="129.85 314.6 129.16 313.71 217.68 243.38 218.4 244.27"/>
          <polyline class="cls-28" points="129.39 314.02 128.68 313.13 217.23 242.78 217.92 243.67"/>
          <polyline class="cls-28" points="128.92 313.43 128.2 312.54 216.75 242.19 217.46 243.08"/>
          <polyline class="cls-70" points="128.44 312.85 127.75 311.96 216.3 241.61 216.99 242.5"/>
          <polyline class="cls-10" points="127.99 312.24 127.27 311.35 215.82 241.02 216.51 241.91"/>
          <polyline class="cls-10" points="127.51 311.65 126.79 310.77 215.34 240.42 216.06 241.31"/>
          <polyline class="cls-10" points="127.03 311.07 126.34 310.18 214.87 239.83 215.58 240.72"/>
          <polyline class="cls-10" points="126.58 310.48 125.86 309.6 214.41 239.25 215.1 240.14"/>
          <polyline class="cls-10" points="126.1 309.88 125.41 309.01 213.93 238.66 214.65 239.55"/>
          <polyline class="cls-155" points="125.62 309.29 124.93 308.4 213.48 238.08 214.17 238.94"/>
          <polyline class="cls-155" points="125.17 308.71 124.45 307.82 213 237.47 213.7 238.36"/>
          <polyline class="cls-155" points="124.69 308.12 124 307.23 212.53 236.89 213.24 237.77"/>
          <polyline class="cls-30" points="124.22 307.52 123.52 306.65 212.07 236.3 212.76 237.19"/>
          <polyline class="cls-30" points="123.76 306.93 123.05 306.04 211.59 235.72 212.31 236.58"/>
          <polyline class="cls-179" points="123.28 306.35 122.59 305.46 211.14 235.11 211.83 236"/>
          <polyline class="cls-42" points="122.83 305.76 122.11 304.87 210.66 234.52 211.36 235.41"/>
          <polyline class="cls-61" points="122.35 305.15 121.64 304.29 210.19 233.94 210.9 234.83"/>
          <polyline class="cls-61" points="121.88 304.57 121.18 303.68 209.71 233.35 210.42 234.24"/>
          <polyline class="cls-61" points="121.42 303.98 120.71 303.1 209.25 232.75 209.95 233.64"/>
          <polyline class="cls-25" points="120.94 303.4 120.23 302.51 208.78 232.16 209.49 233.05"/>
          <polyline class="cls-9" points="120.47 302.81 119.77 301.93 208.32 231.58 209.02 232.47"/>
          <polyline class="cls-67" points="120.01 302.21 119.3 301.32 207.85 230.99 208.54 231.88"/>
          <polyline class="cls-67" points="119.54 301.62 118.84 300.73 207.37 230.39 208.08 231.27"/>
          <polyline class="cls-67" points="119.06 301.04 118.37 300.15 206.91 229.8 207.61 230.69"/>
          <polyline class="cls-223" points="118.6 300.43 117.89 299.56 206.44 229.22 207.15 230.1"/>
          <polyline class="cls-223" points="118.13 299.85 117.43 298.98 205.96 228.63 206.68 229.5"/>
          <polyline class="cls-165" points="117.65 299.26 116.96 298.37 205.51 228.05 206.2 228.91"/>
          <polyline class="cls-165" points="117.2 298.68 116.48 297.79 205.03 227.44 205.72 228.33"/>
          <polyline class="cls-165" points="116.72 298.09 116.03 297.2 204.55 226.85 205.27 227.74"/>
          <polyline class="cls-165" points="116.26 297.48 115.55 296.6 204.1 226.27 204.79 227.16"/>
          <polyline class="cls-22" points="115.79 296.9 115.07 296.01 203.62 225.66 204.34 226.55"/>
          <polyline class="cls-22" points="115.31 296.31 114.62 295.43 203.17 225.08 203.86 225.97"/>
          <polyline class="cls-204" points="114.86 295.73 114.14 294.84 202.69 224.49 203.38 225.38"/>
          <polyline class="cls-204" points="114.38 295.12 113.69 294.23 202.21 223.91 202.93 224.8"/>
          <polyline class="cls-217" points="113.9 294.54 113.21 293.65 201.76 223.3 202.45 224.19"/>
          <polyline class="cls-89" points="113.45 293.95 112.73 293.06 201.28 222.72 201.97 223.6"/>
          <polyline class="cls-89" points="112.97 293.37 112.28 292.48 200.8 222.13 201.52 223.02"/>
          <polyline class="cls-200" points="112.49 292.76 111.8 291.89 200.35 221.55 201.04 222.43"/>
          <polyline class="cls-200" points="112.04 292.18 111.32 291.29 199.87 220.96 200.57 221.83"/>
          <polyline class="cls-80" points="111.56 291.59 110.87 290.7 199.4 220.35 200.11 221.24"/>
          <polyline class="cls-183" points="111.09 291.01 110.39 290.12 198.94 219.77 199.63 220.66"/>
          <polyline class="cls-183" points="110.63 290.4 109.92 289.53 198.46 219.18 199.18 220.07"/>
          <polyline class="cls-183" points="110.15 289.81 109.46 288.93 197.99 218.6 198.7 219.47"/>
          <polyline class="cls-119" points="109.7 289.23 108.98 288.34 197.53 217.99 198.23 218.88"/>
          <polyline class="cls-130" points="109.22 288.64 108.53 287.76 197.06 217.41 197.77 218.3"/>
          <polyline class="cls-107" points="108.75 288.04 108.05 287.17 196.6 216.82 197.29 217.71"/>
          <polyline class="cls-107" points="108.29 287.45 107.58 286.56 196.12 216.24 196.82 217.13"/>
          <polyline class="cls-107" points="107.81 286.87 107.1 285.98 195.65 215.63 196.36 216.52"/>
          <polyline class="cls-130" points="107.34 286.28 106.64 285.39 195.19 215.05 195.89 215.93"/>
          <polyline class="cls-18" points="106.88 285.7 106.17 284.81 194.72 214.46 195.41 215.35"/>
          <polyline class="cls-14" points="106.41 285.09 105.71 284.2 194.24 213.88 194.95 214.76"/>
          <polyline class="cls-14" points="105.93 284.51 105.24 283.62 193.78 213.27 194.48 214.16"/>
          <polyline class="cls-14" points="105.48 283.92 104.76 283.03 193.31 212.68 194.02 213.57"/>
          <polyline class="cls-126" points="105 283.31 104.31 282.45 192.83 212.1 193.55 212.99"/>
          <polyline class="cls-126" points="104.54 282.73 103.83 281.86 192.38 211.51 193.07 212.4"/>
          <polyline class="cls-91" points="104.07 282.14 103.35 281.26 191.9 210.93 192.61 211.8"/>
          <polyline class="cls-91" points="103.59 281.56 102.9 280.67 191.42 210.32 192.14 211.21"/>
          <polyline class="cls-106" points="103.14 280.97 102.42 280.09 190.97 209.74 191.66 210.63"/>
          <polyline class="cls-106" points="102.66 280.37 101.94 279.48 190.49 209.15 191.21 210.04"/>
          <polyline class="cls-186" points="102.18 279.78 101.49 278.9 190.04 208.55 190.73 209.43"/>
          <polyline class="cls-186" points="101.73 279.2 101.01 278.31 189.56 207.96 190.25 208.85"/>
          <polyline class="cls-162" points="101.25 278.61 100.56 277.73 189.08 207.38 189.8 208.26"/>
          <polyline class="cls-162" points="100.77 278.01 100.08 277.14 188.63 206.79 189.32 207.68"/>
          <polyline class="cls-190" points="100.32 277.42 99.6 276.53 188.15 206.18 188.84 207.07"/>
          <polyline class="cls-214" points="99.84 276.84 99.15 275.95 187.67 205.6 188.39 206.49"/>
          <polyline class="cls-214" points="99.39 276.25 98.67 275.36 187.22 205.02 187.91 205.9"/>
          <polyline class="cls-214" points="98.91 275.65 98.2 274.78 186.74 204.43 187.46 205.32"/>
          <polyline class="cls-185" points="98.43 275.06 97.74 274.17 186.27 203.85 186.98 204.71"/>
          <polyline class="cls-144" points="97.96 274.48 97.26 273.59 185.81 203.24 186.5 204.13"/>
          <polyline class="cls-144" points="97.5 273.89 96.79 273 185.33 202.65 186.05 203.54"/>
          <polyline class="cls-123" points="97.03 273.28 96.33 272.42 184.86 202.07 185.57 202.96"/>
          <polyline class="cls-181" points="96.57 272.7 95.86 271.81 184.4 201.48 185.1 202.35"/>
          <polyline class="cls-212" points="96.09 272.11 95.4 271.23 183.93 200.88 184.64 201.77"/>
          <polyline class="cls-212" points="95.62 271.53 94.92 270.64 183.47 200.29 184.16 201.18"/>
          <polyline class="cls-94" points="95.16 270.94 94.45 270.06 182.99 199.71 183.69 200.6"/>
          <polyline class="cls-94" points="94.69 270.34 93.99 269.45 182.52 199.12 183.23 200.01"/>
          <polyline class="cls-53" points="94.21 269.75 93.52 268.86 182.06 198.52 182.76 199.4"/>
          <polyline class="cls-4" points="93.75 269.17 93.04 268.28 181.59 197.93 182.3 198.82"/>
          <polyline class="cls-66" points="93.28 268.58 92.58 267.69 181.11 197.35 181.82 198.23"/>
          <polyline class="cls-66" points="92.8 267.98 92.11 267.11 180.65 196.76 181.35 197.65"/>
          <polyline class="cls-230" points="92.35 267.39 91.63 266.5 180.18 196.15 180.87 197.04"/>
          <polyline class="cls-109" points="91.87 266.81 91.18 265.92 179.7 195.57 180.42 196.46"/>
          <polyline class="cls-109" points="91.41 266.2 90.7 265.33 179.25 194.98 179.94 195.87"/>
          <polyline class="cls-109" points="90.94 265.61 90.22 264.73 178.77 194.4 179.49 195.29"/>
          <polyline class="cls-3" points="90.46 265.03 89.77 264.14 178.32 193.81 179.01 194.68"/>
          <polyline class="cls-159" points="90.01 264.44 89.29 263.56 177.84 193.21 178.53 194.1"/>
          <polyline class="cls-159" points="89.53 263.86 88.81 262.97 177.36 192.62 178.08 193.51"/>
          <polyline class="cls-138" points="89.05 263.25 88.36 262.36 176.91 192.04 177.6 192.93"/>
          <polyline class="cls-138" points="88.6 262.67 87.88 261.78 176.43 191.43 177.12 192.32"/>
          <polyline class="cls-138" points="88.12 262.08 87.43 261.19 175.95 190.85 176.67 191.73"/>
          <polyline class="cls-166" points="87.64 261.5 86.95 260.61 175.5 190.26 176.19 191.15"/>
          <polyline class="cls-166" points="87.19 260.89 86.47 260.02 175.02 189.68 175.72 190.56"/>
          <polyline class="cls-166" points="86.71 260.31 86.02 259.42 174.55 189.07 175.26 189.96"/>
          <polyline class="cls-166" points="86.24 259.72 85.54 258.83 174.09 188.48 174.78 189.37"/>
          <polyline class="cls-137" points="85.78 259.14 85.07 258.25 173.61 187.9 174.33 188.79"/>
          <polyline class="cls-137" points="85.3 258.53 84.61 257.66 173.16 187.31 173.85 188.2"/>
          <polyline class="cls-170" points="84.83 257.94 84.13 257.06 172.68 186.73 173.38 187.6"/>
          <polyline class="cls-158" points="84.37 257.36 83.66 256.47 172.21 186.12 172.92 187.01"/>
          <polyline class="cls-158" points="83.9 256.77 83.2 255.89 171.73 185.54 172.44 186.43"/>
          <polyline class="cls-158" points="83.44 256.17 82.73 255.3 171.27 184.95 171.97 185.84"/>
          <polyline class="cls-95" points="82.96 255.58 82.27 254.69 170.8 184.37 171.51 185.23"/>
          <polyline class="cls-95" points="82.49 255 81.79 254.11 170.34 183.76 171.04 184.65"/>
          <polyline class="cls-95" points="82.03 254.41 81.32 253.52 169.87 183.18 170.56 184.06"/>
          <polyline class="cls-95" points="81.56 253.83 80.86 252.94 169.39 182.59 170.1 183.48"/>
          <polyline class="cls-38" points="81.08 253.22 80.39 252.33 168.93 182.01 169.63 182.89"/>
          <polyline class="cls-38" points="80.62 252.64 79.91 251.75 168.46 181.4 169.17 182.29"/>
          <polyline class="cls-38" points="80.15 252.05 79.45 251.16 167.98 180.81 168.7 181.7"/>
          <polyline class="cls-35" points="79.67 251.47 78.98 250.58 167.53 180.23 168.22 181.12"/>
          <polyline class="cls-35" points="79.22 250.86 78.5 249.99 167.05 179.64 167.74 180.53"/>
          <polyline class="cls-35" points="78.74 250.27 78.05 249.39 166.57 179.04 167.29 179.93"/>
          <polyline class="cls-208" points="78.28 249.69 77.57 248.8 166.12 178.45 166.81 179.34"/>
          <polyline class="cls-148" points="77.81 249.1 77.09 248.22 165.64 177.87 166.36 178.76"/>
          <polyline class="cls-148" points="77.33 248.5 76.64 247.61 165.19 177.28 165.88 178.17"/>
          <polyline class="cls-121" points="76.88 247.91 76.16 247.02 164.71 176.7 165.4 177.56"/>
          <polyline class="cls-121" points="76.4 247.33 75.71 246.44 164.23 176.09 164.95 176.98"/>
          <polyline class="cls-210" points="75.92 246.74 75.23 245.85 163.78 175.51 164.47 176.39"/>
          <polyline class="cls-210" points="75.47 246.14 74.75 245.25 163.3 174.92 163.99 175.81"/>
          <polyline class="cls-201" points="74.99 245.55 74.3 244.66 162.82 174.31 163.54 175.2"/>
          <polyline class="cls-102" points="74.51 244.97 73.82 244.08 162.37 173.73 163.06 174.62"/>
          <polyline class="cls-102" points="74.06 244.38 73.34 243.49 161.89 173.14 162.61 174.03"/>
          <polyline class="cls-110" points="73.58 243.77 72.89 242.91 161.42 172.56 162.13 173.45"/>
          <polyline class="cls-110" points="73.11 243.19 72.41 242.3 160.96 171.97 161.65 172.84"/>
          <polyline class="cls-110" points="72.65 242.61 71.94 241.72 160.48 171.37 161.2 172.26"/>
          <polyline class="cls-157" points="72.17 242.02 71.48 241.13 160.01 170.78 160.72 171.67"/>
          <polyline class="cls-157" points="71.72 241.41 71 240.55 159.55 170.2 160.25 171.09"/>
          <polyline class="cls-157" points="71.24 240.83 70.53 239.94 159.08 169.61 159.79 170.48"/>
          <polyline class="cls-63" points="70.77 240.24 70.07 239.36 158.62 169.01 159.31 169.89"/>
          <polyline class="cls-173" points="70.31 239.66 69.6 238.77 158.14 168.42 158.84 169.31"/>
          <polyline class="cls-173" points="69.83 239.05 69.12 238.19 157.67 167.84 158.38 168.72"/>
          <polyline class="cls-55" points="69.36 238.47 68.66 237.58 157.21 167.25 157.91 168.14"/>
          <polyline class="cls-36" points="68.9 237.88 68.19 236.99 156.74 166.65 157.45 167.53"/>
          <polyline class="cls-36" points="68.43 237.3 67.73 236.41 156.26 166.06 156.97 166.95"/>
          <polyline class="cls-36" points="67.95 236.71 67.26 235.82 155.8 165.48 156.5 166.36"/>
          <polyline class="cls-97" points="67.5 236.11 66.78 235.22 155.33 164.89 156.04 165.78"/>
          <polyline class="cls-97" points="67.02 235.52 66.33 234.63 154.85 164.28 155.57 165.17"/>
          <polyline class="cls-97" points="66.56 234.94 65.85 234.05 154.4 163.7 155.09 164.59"/>
          <polyline class="cls-39" points="66.09 234.35 65.37 233.46 153.92 163.11 154.63 164"/>
          <polyline class="cls-59" points="65.61 233.74 64.92 232.88 153.44 162.53 154.16 163.42"/>
          <polyline class="cls-59" points="65.13 233.16 64.44 232.27 152.99 161.92 153.68 162.81"/>
          <polyline class="cls-59" points="64.68 232.57 63.96 231.69 152.51 161.34 153.23 162.23"/>
          <polyline class="cls-23" points="64.2 231.99 63.51 231.1 152.06 160.75 152.75 161.64"/>
          <polyline class="cls-23" points="63.75 231.38 63.03 230.49 151.58 160.17 152.27 161.06"/>
          <polyline class="cls-23" points="63.27 230.8 62.58 229.91 151.1 159.58 151.82 160.45"/>
          <polyline class="cls-206" points="62.79 230.21 62.1 229.32 150.65 158.98 151.34 159.86"/>
          <polyline class="cls-151" points="62.34 229.63 61.62 228.74 150.17 158.39 150.86 159.28"/>
          <polyline class="cls-151" points="61.86 229.02 61.17 228.15 149.69 157.81 150.41 158.69"/>
          <polyline class="cls-176" points="61.41 228.44 60.69 227.55 149.24 157.2 149.93 158.09"/>
          <polyline class="cls-176" points="60.93 227.85 60.22 226.96 148.76 156.61 149.48 157.5"/>
          <polyline class="cls-52" points="60.45 227.27 59.76 226.38 148.29 156.03 149 156.92"/>
          <polyline class="cls-52" points="59.98 226.66 59.28 225.79 147.83 155.44 148.52 156.33"/>
          <polyline class="cls-62" points="59.52 226.07 58.81 225.19 147.35 154.86 148.07 155.73"/>
          <polyline class="cls-62" points="59.05 225.49 58.35 224.6 146.88 154.25 147.59 155.14"/>
          <polyline class="cls-7" points="58.59 224.9 57.88 224.02 146.42 153.67 147.12 154.56"/>
          <polyline class="cls-75" points="58.11 224.3 57.42 223.43 145.95 153.08 146.66 153.97"/>
          <polyline class="cls-75" points="57.64 223.71 56.94 222.82 145.49 152.5 146.18 153.36"/>
          <polyline class="cls-74" points="57.18 223.13 56.47 222.24 145.01 151.89 145.71 152.78"/>
          <polyline class="cls-103" points="56.71 222.54 55.99 221.65 144.54 151.31 145.25 152.19"/>
          <polyline class="cls-103" points="56.23 221.96 55.54 221.07 144.08 150.72 144.78 151.61"/>
          <polyline class="cls-103" points="55.77 221.35 55.06 220.46 143.61 150.14 144.32 151.02"/>
          <polyline class="cls-142" points="55.3 220.77 54.6 219.88 143.13 149.53 143.84 150.42"/>
          <polyline class="cls-69" points="54.82 220.18 54.13 219.29 142.67 148.94 143.37 149.83"/>
          <polyline class="cls-69" points="54.37 219.6 53.65 218.71 142.2 148.36 142.89 149.25"/>
          <polyline class="cls-69" points="53.89 218.99 53.2 218.1 141.72 147.77 142.44 148.66"/>
          <polyline class="cls-114" points="53.43 218.4 52.72 217.52 141.27 147.17 141.96 148.06"/>
          <polyline class="cls-114" points="52.96 217.82 32.92 192.6 121.46 122.25 141.51 147.47"/>
        </g>
      </g>
      <g class="cls-241">
        <g>
          <polyline class="cls-107" points="61.02 203.63 61 203.61 194.11 55.48 194.11 55.5"/>
          <polyline class="cls-130" points="61.19 203.78 60.58 203.24 193.7 55.11 194.3 55.67"/>
          <polyline class="cls-18" points="60.78 203.41 60.17 202.87 193.29 54.74 193.89 55.31"/>
          <polyline class="cls-14" points="60.39 203.04 59.76 202.5 192.87 54.4 193.48 54.94"/>
          <polyline class="cls-14" points="59.98 202.68 59.37 202.13 192.46 54.03 193.07 54.57"/>
          <polyline class="cls-14" points="59.57 202.33 58.96 201.77 192.07 53.66 192.68 54.2"/>
          <polyline class="cls-126" points="59.15 201.96 58.55 201.4 191.66 53.29 192.27 53.83"/>
          <polyline class="cls-126" points="58.74 201.59 58.14 201.05 191.25 52.92 191.86 53.46"/>
          <polyline class="cls-91" points="58.35 201.22 57.72 200.68 190.84 52.55 191.44 53.1"/>
          <polyline class="cls-91" points="57.94 200.86 57.31 200.31 190.43 52.19 191.03 52.75"/>
          <polyline class="cls-106" points="57.53 200.49 56.92 199.95 190.04 51.82 190.64 52.38"/>
          <polyline class="cls-106" points="57.12 200.12 56.51 199.58 189.62 51.45 190.23 52.01"/>
          <polyline class="cls-186" points="56.71 199.75 56.1 199.21 189.21 51.1 189.82 51.64"/>
          <polyline class="cls-186" points="56.32 199.4 55.69 198.84 188.8 50.73 189.41 51.28"/>
          <polyline class="cls-162" points="55.9 199.01 55.28 198.47 188.39 50.37 189 50.91"/>
          <polyline class="cls-162" points="55.49 198.67 54.89 198.1 188 50 188.61 50.54"/>
          <polyline class="cls-190" points="55.08 198.3 54.47 197.74 187.59 49.63 188.19 50.17"/>
          <polyline class="cls-214" points="54.67 197.93 54.06 197.37 187.18 49.26 187.78 49.8"/>
          <polyline class="cls-214" points="54.28 197.56 53.65 197.02 186.76 48.89 187.37 49.43"/>
          <polyline class="cls-214" points="53.87 197.19 53.24 196.65 186.35 48.52 186.96 49.09"/>
          <polyline class="cls-185" points="53.46 196.83 52.85 196.28 185.96 48.16 186.57 48.72"/>
          <polyline class="cls-144" points="53.04 196.46 52.44 195.92 185.55 47.79 186.16 48.35"/>
          <polyline class="cls-144" points="52.63 196.09 52.03 195.55 185.14 47.44 185.75 47.98"/>
          <polyline class="cls-123" points="52.24 195.72 51.61 195.18 184.73 47.07 185.33 47.61"/>
          <polyline class="cls-181" points="51.83 195.37 51.2 194.81 184.32 46.7 184.92 47.25"/>
          <polyline class="cls-212" points="51.42 195.01 50.81 194.44 183.9 46.34 184.53 46.88"/>
          <polyline class="cls-212" points="51.01 194.64 50.4 194.1 183.51 45.97 184.12 46.51"/>
          <polyline class="cls-94" points="50.6 194.27 49.99 193.71 183.1 45.6 183.71 46.14"/>
          <polyline class="cls-94" points="50.21 193.9 49.58 193.36 182.69 45.23 183.3 45.77"/>
          <polyline class="cls-53" points="49.79 193.53 49.17 192.99 182.28 44.86 182.89 45.43"/>
          <polyline class="cls-4" points="49.38 193.16 48.78 192.62 181.87 44.49 182.5 45.06"/>
          <polyline class="cls-66" points="48.97 192.8 48.36 192.25 181.48 44.13 182.08 44.69"/>
          <polyline class="cls-66" points="48.56 192.43 47.95 191.89 181.07 43.78 181.67 44.32"/>
          <polyline class="cls-230" points="48.17 192.06 47.54 191.52 180.65 43.41 181.26 43.95"/>
          <polyline class="cls-109" points="47.76 191.71 47.13 191.15 180.24 43.04 180.85 43.58"/>
          <polyline class="cls-109" points="47.35 191.34 46.74 190.78 179.83 42.67 180.46 43.22"/>
          <polyline class="cls-109" points="46.93 190.98 46.33 190.41 179.44 42.31 180.05 42.85"/>
          <polyline class="cls-3" points="46.52 190.61 45.92 190.07 179.03 41.94 179.64 42.48"/>
          <polyline class="cls-159" points="46.11 190.24 45.5 189.7 178.62 41.57 179.23 42.13"/>
          <polyline class="cls-159" points="45.72 189.87 45.09 189.33 178.21 41.2 178.81 41.76"/>
          <polyline class="cls-138" points="45.31 189.5 44.7 188.96 177.8 40.83 178.42 41.4"/>
          <polyline class="cls-138" points="44.9 189.13 44.29 188.59 177.41 40.46 178.01 41.03"/>
          <polyline class="cls-138" points="44.49 188.77 43.88 188.22 176.99 40.12 177.6 40.66"/>
          <polyline class="cls-166" points="44.07 188.4 43.47 187.86 176.58 39.75 177.19 40.29"/>
          <polyline class="cls-166" points="43.68 188.05 43.06 187.49 176.17 39.38 176.78 39.92"/>
          <polyline class="cls-166" points="43.27 187.68 42.67 187.12 175.76 39.01 176.37 39.55"/>
          <polyline class="cls-166" points="42.86 187.31 42.25 186.75 175.37 38.64 175.98 39.19"/>
          <polyline class="cls-137" points="42.45 186.95 41.84 186.4 174.96 38.28 175.56 38.82"/>
          <polyline class="cls-137" points="42.04 186.58 41.43 186.04 174.55 37.91 175.15 38.47"/>
          <polyline class="cls-170" points="41.65 186.21 41.02 185.67 174.13 37.54 174.74 38.1"/>
          <polyline class="cls-158" points="41.24 185.84 40.63 185.3 173.72 37.17 174.33 37.73"/>
          <polyline class="cls-158" points="40.82 185.47 40.22 184.93 173.33 36.82 173.94 37.37"/>
          <polyline class="cls-158" points="40.41 185.1 39.81 184.56 172.92 36.43 173.53 37"/>
          <polyline class="cls-95" points="40 184.76 39.39 184.19 172.51 36.09 173.12 36.63"/>
          <polyline class="cls-95" points="39.61 184.39 38.98 183.83 172.1 35.72 172.7 36.26"/>
          <polyline class="cls-95" points="39.2 184.02 38.59 183.46 171.69 35.35 172.29 35.89"/>
          <polyline class="cls-95" points="38.79 183.65 38.18 183.09 171.3 34.98 171.9 35.52"/>
          <polyline class="cls-38" points="38.38 183.28 37.77 182.74 170.88 34.61 171.49 35.16"/>
          <polyline class="cls-38" points="37.96 182.92 37.36 182.37 170.47 34.25 171.08 34.81"/>
          <polyline class="cls-38" points="37.55 182.55 36.95 182.01 170.06 33.88 170.67 34.44"/>
          <polyline class="cls-35" points="37.16 182.18 36.56 181.64 169.65 33.51 170.26 34.07"/>
          <polyline class="cls-35" points="36.75 181.81 36.14 181.27 169.26 33.16 169.87 33.7"/>
          <polyline class="cls-35" points="36.34 181.44 35.73 180.9 168.85 32.79 169.45 33.34"/>
          <polyline class="cls-208" points="35.93 181.1 35.32 180.53 168.44 32.43 169.04 32.97"/>
          <polyline class="cls-148" points="35.52 180.73 34.91 180.16 168.02 32.06 168.63 32.6"/>
          <polyline class="cls-148" points="35.13 180.36 34.52 179.8 167.61 31.69 168.22 32.23"/>
          <polyline class="cls-121" points="34.71 179.99 34.11 179.43 167.2 31.32 167.83 31.86"/>
          <polyline class="cls-121" points="34.3 179.62 33.7 179.08 166.81 30.95 167.42 31.52"/>
          <polyline class="cls-210" points="33.89 179.25 33.28 178.71 166.4 30.58 167.01 31.13"/>
          <polyline class="cls-210" points="33.48 178.89 32.87 178.34 165.99 30.22 166.59 30.78"/>
          <polyline class="cls-201" points="33.09 178.52 32.48 177.98 165.58 29.85 166.18 30.41"/>
          <polyline class="cls-102" points="32.68 178.15 32.07 177.61 165.16 29.5 165.79 30.04"/>
          <polyline class="cls-102" points="32.27 177.78 31.66 177.24 164.77 29.13 165.38 29.67"/>
          <polyline class="cls-110" points="31.85 177.43 31.25 176.87 164.36 28.76 164.97 29.31"/>
          <polyline class="cls-110" points="31.44 177.07 30.84 176.5 163.95 28.4 164.56 28.94"/>
          <polyline class="cls-110" points="31.05 176.7 30.45 176.13 163.54 28.03 164.15 28.57"/>
          <polyline class="cls-157" points="30.64 176.33 30.04 175.79 163.13 27.66 163.76 28.2"/>
          <polyline class="cls-157" points="30.23 175.96 29.62 175.42 162.74 27.29 163.34 27.85"/>
          <polyline class="cls-157" points="29.82 175.59 29.21 175.05 162.33 26.92 162.93 27.49"/>
          <polyline class="cls-63" points="29.41 175.22 28.8 174.68 161.91 26.55 162.52 27.12"/>
          <polyline class="cls-173" points="29.02 174.86 28.39 174.31 161.5 26.21 162.11 26.75"/>
          <polyline class="cls-173" points="28.61 174.49 28 173.95 161.09 25.82 161.72 26.38"/>
          <polyline class="cls-55" points="28.19 174.12 27.59 173.58 160.7 25.47 161.31 26.01"/>
          <polyline class="cls-36" points="27.78 173.77 27.18 173.21 160.29 25.1 160.9 25.64"/>
          <polyline class="cls-36" points="27.37 173.4 26.76 172.84 159.88 24.73 160.48 25.28"/>
          <polyline class="cls-36" points="26.98 173.04 26.35 172.47 159.47 24.37 160.07 24.91"/>
          <polyline class="cls-97" points="26.57 172.67 25.96 172.13 159.05 24 159.68 24.54"/>
          <polyline class="cls-97" points="26.16 172.3 25.55 171.76 158.66 23.63 159.27 24.17"/>
          <polyline class="cls-97" points="25.75 171.93 25.14 171.39 158.25 23.26 158.86 23.82"/>
          <polyline class="cls-39" points="25.33 171.56 24.73 171.02 157.84 22.89 158.45 23.46"/>
          <polyline class="cls-59" points="24.94 171.19 24.32 170.65 157.43 22.55 158.04 23.09"/>
          <polyline class="cls-59" points="24.53 170.83 23.93 170.28 157.02 22.18 157.65 22.72"/>
          <polyline class="cls-59" points="24.12 170.48 23.51 169.92 156.63 21.81 157.23 22.35"/>
          <polyline class="cls-23" points="23.71 170.09 23.1 169.55 156.22 21.44 156.82 21.98"/>
          <polyline class="cls-23" points="23.3 169.74 22.69 169.18 155.8 21.07 156.41 21.61"/>
          <polyline class="cls-23" points="22.91 169.37 22.28 168.81 155.39 20.7 156 21.25"/>
          <polyline class="cls-206" points="22.5 169.01 21.89 168.44 154.98 20.34 155.61 20.88"/>
          <polyline class="cls-151" points="22.08 168.64 21.48 168.1 154.59 19.97 155.2 20.51"/>
          <polyline class="cls-151" points="21.67 168.27 21.07 167.73 154.18 19.6 154.79 20.16"/>
          <polyline class="cls-176" points="21.26 167.9 20.65 167.36 153.77 19.23 154.37 19.79"/>
          <polyline class="cls-176" points="20.85 167.53 20.24 166.99 153.36 18.86 153.96 19.43"/>
          <polyline class="cls-52" points="20.46 167.17 19.85 166.62 152.94 18.52 153.57 19.06"/>
          <polyline class="cls-52" points="20.05 166.8 19.44 166.26 152.53 18.15 153.16 18.69"/>
          <polyline class="cls-62" points="19.64 166.45 19.03 165.89 152.14 17.78 152.75 18.32"/>
          <polyline class="cls-62" points="19.22 166.08 18.62 165.52 151.73 17.41 152.34 17.95"/>
          <polyline class="cls-7" points="18.81 165.71 18.21 165.15 151.32 17.04 151.93 17.59"/>
          <polyline class="cls-75" points="18.42 165.35 17.82 164.78 150.91 16.68 151.54 17.22"/>
          <polyline class="cls-75" points="18.01 164.98 17.4 164.44 150.5 16.31 151.12 16.85"/>
          <polyline class="cls-74" points="17.6 164.61 16.99 164.07 150.11 15.94 150.71 16.5"/>
          <polyline class="cls-103" points="17.19 164.24 16.58 163.7 149.69 15.57 150.3 16.13"/>
          <polyline class="cls-103" points="16.78 163.87 16.17 163.33 149.28 15.2 149.89 15.77"/>
          <polyline class="cls-103" points="16.39 163.5 15.78 162.96 148.87 14.83 149.5 15.4"/>
          <polyline class="cls-142" points="15.97 163.14 15.37 162.59 148.46 14.49 149.09 15.03"/>
          <polyline class="cls-69" points="15.56 162.79 14.96 162.23 148.07 14.12 148.68 14.66"/>
          <polyline class="cls-69" points="15.15 162.42 14.54 161.86 147.66 13.75 148.26 14.29"/>
          <polyline class="cls-69" points="14.74 162.05 14.13 161.49 147.25 13.38 147.85 13.92"/>
          <polyline class="cls-114" points="14.35 161.68 13.74 161.14 146.83 13.01 147.46 13.56"/>
          <polyline class="cls-114" points="13.94 161.32 -19.86 130.94 113.23 -17.19 147.05 13.21"/>
        </g>
      </g>
      <g>
        <path class="cls-240" d="M310.97,151.39c0,9.01,6.56,15.69,14.82,15.69,6.37,0,9.88-4.09,9.88-4.09h.09s-.04.65-.04,1.3v2.27h2.75v-14.49h-8.02v2.66h5.18v5.13s-3.62,4.44-9.53,4.44c-6.89,0-12.02-5.52-12.02-12.98s4.96-12.85,12.28-12.85c5.52,0,9.06,3.01,9.06,3.01l1.58-2.25s-3.75-3.53-10.77-3.53c-8.71,0-15.25,6.89-15.25,15.64M349.58,166.58h2.97v-12.76h7.63l6.85,12.76h3.4l-6.59-12.2c-.48-.82-.78-1.21-.78-1.21v-.09c3.4-.95,5.74-4.09,5.74-8.19,0-3.66-1.73-6.56-4.57-7.8-1.21-.52-2.58-.82-5.7-.82h-8.97v30.31h.02ZM352.57,151.13v-12.2h6.13c2.32,0,3.4.26,4.31.74,1.78.95,2.75,2.79,2.75,5.31,0,3.79-2.32,6.17-6,6.17h-7.19v-.02ZM378.51,151.22c0,8.88,6.85,15.86,15.43,15.86s15.43-6.98,15.43-15.86-6.85-15.47-15.43-15.47-15.43,6.76-15.43,15.47ZM381.63,151.22c0-7.24,5.48-12.72,12.33-12.72s12.33,5.48,12.33,12.72-5.52,13.11-12.33,13.11-12.33-5.7-12.33-13.11ZM419.63,156.01c0,6.72,4.74,11.07,11.63,11.07s11.55-4.35,11.55-11.07v-19.74h-2.97v19.61c0,5.31-3.4,8.45-8.62,8.45s-8.58-3.14-8.58-8.36v-19.69h-3.01v19.74ZM455.14,166.58h2.97v-11.89h7.5c5.44,0,9.36-3.62,9.36-9.27s-3.92-9.14-9.36-9.14h-10.46v30.31ZM458.13,152v-13.06h7.15c4.01,0,6.63,2.36,6.63,6.48s-2.62,6.59-6.67,6.59c0,0-7.11,0-7.11,0Z"/>
        <polygon class="cls-240" points="274.75 166.58 294.88 166.58 294.88 160.1 282.29 160.1 282.29 135.75 274.75 135.75 274.75 166.58"/>
        <path class="cls-240" d="M260.21,166.58h7.76l-10.49-30.83h-7.93l-10.49,30.83h7.76l1.84-6.48h9.62l1.88,6.48h.04ZM253.56,142.77s.69,3.36,1.26,5.31l1.73,6h-6.09l1.78-6c.56-1.95,1.26-5.31,1.26-5.31h.09-.02Z"/>
        <path class="cls-240" d="M206.26,166.58h7.54v-14.36c0-1.93-.35-5.26-.35-5.26h.09s1.39,3.23,2.58,5.26l8.58,14.36h7.58v-30.83h-7.54v14.39c0,1.95.35,5.26.35,5.26h-.09s-1.39-3.23-2.58-5.26l-8.54-14.39h-7.63v30.83Z"/>
        <path class="cls-240" d="M170.34,155.23c0,6.93,5.09,11.85,12.93,11.85s12.85-4.92,12.85-11.85v-19.48h-7.54v19.48c0,3.23-2.1,4.96-5.35,4.96s-5.35-1.73-5.35-4.96v-19.48h-7.54s0,19.48,0,19.48Z"/>
        <polygon class="cls-240" points="137.74 166.58 145.27 166.58 145.27 154.08 148.37 154.08 154.89 166.58 163.34 166.58 154.55 150.59 154.55 150.5 162.87 135.75 154.76 135.75 148.37 147.64 145.27 147.64 145.27 135.75 137.74 135.75 137.74 166.58"/>
        <path class="cls-240" d="M471.54,200.23c0,2.66,1.8,2.99,2.82,2.99.32,0,.61-.04.61-.04v-1.49s-.19.02-.41.02c-.63,0-1.36-.24-1.36-1.84v-13.82h-1.65s0,14.19,0,14.19ZM452.34,199.69c0-2.71,3.83-2.77,5.76-2.77h.71v.54c0,2.12-1.41,4.55-3.75,4.55-1.82,0-2.73-1.17-2.73-2.32h0ZM450.65,199.79c0,2.43,2.12,3.62,4.16,3.62,3.05,0,4.09-2.64,4.09-2.64h.04s-.04.41-.04,1.02v1.34h1.58v-7.82c0-3.05-1.62-4.7-4.57-4.7-2.75,0-4.35,1.39-4.35,1.39l.78,1.26s1.43-1.17,3.44-1.17c1.75,0,3.03.8,3.03,3.16v.32h-.69c-2.1,0-7.5.11-7.5,4.22h.02ZM429.79,198.67c0,3.18,1.21,4.74,4.09,4.74,2.69,0,4.31-1.88,4.79-3.1h.04s-.04.43-.04.97v1.82h1.6v-12.24h-1.65v5.85c0,2.64-1.73,5.11-4.53,5.11-2.36,0-2.64-1.69-2.64-3.62v-7.34h-1.65v7.78l-.02.02ZM414.9,198.67c0,4.09,2.84,4.55,4.25,4.55.43,0,.69-.04.69-.04v-1.49s-.22.04-.56.04c-.93,0-2.75-.37-2.75-3.23v-6.09h3.05v-1.39h-3.05v-3.53h-1.62v3.53h-1.62v1.39h1.6v6.24l.02.02ZM394.52,195.72c.39-2.45,2.17-3.75,4.2-3.75,1.82,0,3.38,1.19,3.47,3.75h-7.69.02ZM392.76,197.02c0,3.77,2.75,6.39,6.39,6.39,2.75,0,4.53-1.69,4.53-1.69l-.76-1.26s-1.47,1.49-3.73,1.49c-2.53,0-4.66-1.71-4.74-4.83h9.38s.04-.56.04-.84c0-3.03-1.73-5.63-5.11-5.63s-6.02,2.4-6.02,6.41l.02-.04ZM373.5,197.04c0-3.49,1.93-4.94,3.96-4.94,2.3,0,3.86,1.93,3.86,4.9s-1.78,4.94-3.94,4.94c-2.53,0-3.9-2.45-3.9-4.92l.02.02ZM371.9,207.98h1.65v-5.83c0-.63-.04-1.06-.04-1.06h.04s1.06,2.34,4.01,2.34c3.16,0,5.48-2.53,5.48-6.39s-2.04-6.41-5.33-6.41-4.22,2.43-4.22,2.43h-.04s.04-.41.04-.95v-1.19h-1.58v17.09-.02ZM355.87,203.13h1.65v-5.16c0-.78.09-1.6.35-2.38.54-1.8,1.82-3.16,3.55-3.16.3,0,.61.04.61.04v-1.62s-.32-.06-.65-.06c-1.93,0-3.27,1.41-3.86,3.25h-.04s.04-.43.04-.97v-2.17h-1.62v12.24h-.02ZM335.95,195.72c.39-2.45,2.17-3.75,4.2-3.75,1.82,0,3.38,1.19,3.49,3.75h-7.69ZM334.18,197.02c0,3.77,2.75,6.39,6.39,6.39,2.75,0,4.53-1.69,4.53-1.69l-.76-1.26s-1.49,1.49-3.73,1.49c-2.53,0-4.66-1.71-4.74-4.83h9.38s.04-.56.04-.84c0-3.03-1.73-5.63-5.11-5.63s-6.02,2.4-6.02,6.41l.02-.04ZM315.29,194.9v-7.37h4.03c2.25,0,3.75,1.34,3.75,3.64s-1.47,3.73-3.77,3.73h-4.01,0ZM313.6,203.13h1.69v-6.72h4.22c3.05,0,5.29-2.04,5.29-5.22s-2.21-5.16-5.29-5.16h-5.91v17.09Z"/>
      </g>
    </g>
    <line class="cls-235" x1="522.08" y1="111.77" x2="522.08" y2="295.47"/>
  </g>
  <g>
    <g>
      <path class="cls-234" d="M1055.19,406.39c1.63,2.06,2.45,4.43,2.45,7.09,0,2.41-.59,4.52-1.77,6.35-1.18,1.83-2.89,3.26-5.12,4.29-2.23,1.03-4.88,1.55-7.93,1.55h-19.4v-44.99h18.56c3.05,0,5.68.49,7.9,1.48,2.21.99,3.89,2.36,5.03,4.12,1.14,1.76,1.71,3.76,1.71,6,0,2.62-.7,4.81-2.1,6.58-1.4,1.76-3.26,3.01-5.58,3.74,2.54.47,4.62,1.74,6.25,3.8ZM1032.43,399.24h8.25c2.15,0,3.8-.48,4.96-1.45s1.74-2.35,1.74-4.16-.58-3.2-1.74-4.19c-1.16-.99-2.81-1.48-4.96-1.48h-8.25v11.28ZM1046.64,416.77c1.23-1.03,1.84-2.49,1.84-4.38s-.64-3.45-1.93-4.54c-1.29-1.1-3.03-1.64-5.22-1.64h-8.9v12.12h9.09c2.19,0,3.9-.52,5.12-1.55Z"/>
      <path class="cls-234" d="M1092.44,417.09h-17.92l-2.96,8.57h-9.48l16.18-45.06h10.51l16.18,45.06h-9.54l-2.97-8.57ZM1089.99,409.88l-6.51-18.82-6.51,18.82h13.02Z"/>
      <path class="cls-234" d="M1120.03,418.51h14.83v7.16h-23.85v-44.99h9.02v37.84Z"/>
      <path class="cls-234" d="M1149.62,387.96v11.28h15.15v7.16h-15.15v11.92h17.08v7.35h-26.11v-45.06h26.11v7.35h-17.08Z"/>
      <path class="cls-234" d="M1235.03,380.68l-12.57,44.99h-10.64l-8.44-32.04-8.83,32.04-10.57.06-12.12-45.06h9.67l7.93,34.94,9.15-34.94h10.06l8.64,34.74,7.99-34.74h9.73Z"/>
      <path class="cls-234" d="M1268.48,417.09h-17.92l-2.96,8.57h-9.48l16.18-45.06h10.51l16.18,45.06h-9.54l-2.97-8.57ZM1266.03,409.88l-6.51-18.82-6.51,18.82h13.02Z"/>
      <path class="cls-234" d="M1315.25,383.45c3.59,1.85,6.36,4.48,8.32,7.9,1.96,3.42,2.93,7.38,2.93,11.89s-.98,8.46-2.93,11.83c-1.96,3.37-4.73,5.98-8.32,7.83-3.59,1.85-7.75,2.77-12.47,2.77h-15.73v-44.99h15.73c4.73,0,8.88.92,12.47,2.77ZM1313.41,414.13c2.58-2.58,3.87-6.21,3.87-10.89s-1.29-8.35-3.87-10.99-6.23-3.96-10.96-3.96h-6.38v29.72h6.38c4.73,0,8.38-1.29,10.96-3.87Z"/>
      <path class="cls-234" d="M1342.29,380.68v44.99h-9.02v-44.99h9.02Z"/>
      <path class="cls-234" d="M1361.05,416.19l-7.54,18.11h-5.8l4.19-18.11h9.15Z"/>
      <path class="cls-234" d="M1414,401.37c-1.14,2.11-2.92,3.8-5.35,5.09s-5.49,1.93-9.19,1.93h-7.54v17.28h-9.02v-44.99h16.57c3.48,0,6.45.6,8.9,1.8,2.45,1.2,4.29,2.86,5.51,4.96s1.84,4.49,1.84,7.15c0,2.41-.57,4.66-1.71,6.77ZM1404.62,399.4c1.2-1.14,1.8-2.74,1.8-4.8,0-4.38-2.45-6.57-7.35-6.57h-7.15v13.08h7.15c2.49,0,4.34-.57,5.54-1.71Z"/>
      <path class="cls-234" d="M1430.99,380.68v27.85c0,3.05.79,5.38,2.38,6.99,1.59,1.61,3.82,2.42,6.7,2.42s5.18-.81,6.77-2.42,2.39-3.94,2.39-6.99v-27.85h9.09v27.78c0,3.83-.83,7.06-2.48,9.7s-3.87,4.63-6.64,5.96c-2.77,1.33-5.86,2-9.25,2s-6.39-.67-9.12-2c-2.73-1.33-4.89-3.32-6.48-5.96-1.59-2.64-2.39-5.88-2.39-9.7v-27.78h9.03Z"/>
      <path class="cls-234" d="M1505.5,425.67h-9.02l-20.43-30.88v30.88h-9.02v-45.06h9.02l20.43,30.94v-30.94h9.02v45.06Z"/>
      <path class="cls-234" d="M1523.42,387.96v11.28h15.15v7.16h-15.15v11.92h17.08v7.35h-26.11v-45.06h26.11v7.35h-17.08Z"/>
    </g>
    <g>
      <g>
        <path class="cls-238" d="M65.79,414.44l-3.92,11.82h-5.01l12.82-37.7h5.87l12.89,37.7h-5.23l-3.99-11.82h-13.47.02ZM78.13,410.65l-3.72-10.79c-.79-2.46-1.38-4.7-1.96-6.88h-.14c-.6,2.24-1.17,4.49-1.89,6.83l-3.72,10.86h11.44v-.02Z"/>
        <path class="cls-238" d="M101.38,388.63v22.32c0,8.4,3.8,12.03,8.76,12.03,5.56,0,9.22-3.72,9.22-12.03v-22.32h4.92v21.97c0,11.6-6.09,16.31-14.21,16.31-7.69,0-13.54-4.42-13.54-16.07v-22.18h4.92-.07v-.02Z"/>
        <path class="cls-238" d="M144.07,392.76h-11.44v-4.13h27.91v4.13h-11.51v33.57h-4.92v-33.57s-.05,0-.05,0Z"/>
        <path class="cls-238" d="M173.7,388.63v15.81h18.17v-15.81h4.92v37.7h-4.92v-17.62h-18.17v17.62h-4.85v-37.7h4.85Z"/>
        <path class="cls-238" d="M241.72,407.06c0,12.96-7.9,19.86-17.48,19.86s-16.98-7.69-16.98-19.12,7.38-19.79,17.48-19.79,16.98,7.9,16.98,19.05h0ZM212.5,407.69c0,8.05,4.35,15.23,12.03,15.23s12.1-7.09,12.1-15.66c0-7.45-3.92-15.3-12.03-15.3s-12.1,7.38-12.1,15.73h0Z"/>
        <path class="cls-238" d="M252.23,389.16c2.46-.53,6.02-.79,9.36-.79,5.23,0,8.55.93,10.86,3.13,1.89,1.67,2.96,4.18,2.96,7.16,0,5.01-3.13,8.26-7.09,9.67v.14c2.89,1.03,4.63,3.72,5.49,7.62,1.24,5.3,2.1,8.91,2.89,10.36h-5.01c-.6-1.1-1.43-4.25-2.53-9-1.1-5.23-3.13-7.16-7.52-7.31h-4.56v16.31h-4.85v-37.2h0v-.07l.05-.05h0l-.05.02ZM257.1,406.32h5.01c5.23,0,8.48-2.82,8.48-7.16,0-4.85-3.56-6.97-8.69-7.02-2.39,0-3.99.21-4.78.45v13.78h0l-.02-.05Z"/>
        <path class="cls-238" d="M291.36,388.63v37.7h-4.85v-37.7h4.85Z"/>
        <path class="cls-238" d="M301.43,423.44l20.89-30.58v-.14h-19.12v-4.06h25.43v2.96l-20.8,30.44v.14h21.08v4.06h-27.48v-2.82h0Z"/>
        <path class="cls-238" d="M358.64,408.64h-14.64v13.54h16.31v4.06h-21.15v-37.7h20.39v4.06h-15.5v11.89h14.64v3.99h0v.14h0v.05l-.05-.02Z"/>
        <path class="cls-238" d="M370.89,389.16c2.96-.45,6.54-.79,10.36-.79,6.97,0,11.96,1.58,15.23,4.7,3.34,3.06,5.3,7.38,5.3,13.54s-1.89,11.17-5.42,14.64c-3.56,3.56-9.36,5.42-16.66,5.42-3.49,0-6.4-.14-8.83-.45v-37.05h0l.07-.07h0l-.05.05v.02ZM375.71,422.42c1.24.21,3.06.29,4.92.29,10.36,0,16-5.8,16-16,0-8.91-5.01-14.49-15.23-14.49-2.53,0-4.42.21-5.73.53v29.7h0l.05-.02Z"/>
        <path class="cls-238" d="M428.28,389.09c2.39-.38,5.42-.74,9.36-.74,4.78,0,8.36,1.1,10.58,3.13,2.1,1.81,3.34,4.49,3.34,7.9s-1.03,6.09-2.89,8.05c-2.6,2.75-6.76,4.13-11.51,4.13-1.43,0-2.82,0-3.92-.38v15.09h-4.85v-37.25h0l-.07.07h-.05,0ZM433.13,407.28c1.1.29,2.39.38,3.99.38,5.87,0,9.5-2.82,9.5-8.05s-3.56-7.38-8.91-7.38c-2.1,0-3.8.14-4.56.38v14.64h0v.07h0l-.02-.05Z"/>
        <path class="cls-238" d="M462.26,389.16c2.46-.53,6.02-.79,9.36-.79,5.23,0,8.55.93,10.86,3.13,1.89,1.67,2.96,4.18,2.96,7.16,0,5.01-3.13,8.26-7.09,9.67v.14c2.89,1.03,4.63,3.72,5.49,7.62,1.24,5.3,2.1,8.91,2.89,10.36h-5.01c-.6-1.1-1.43-4.25-2.53-9-1.1-5.23-3.13-7.16-7.52-7.31h-4.56v16.31h-4.85v-37.2h0v-.07l.05-.05h0l-.05.02ZM467.13,406.32h5.01c5.23,0,8.48-2.82,8.48-7.16,0-4.85-3.56-6.97-8.69-7.02-2.39,0-3.99.21-4.78.45v13.78h0l-.02-.05Z"/>
        <path class="cls-238" d="M515.98,408.64h-14.64v13.54h16.31v4.06h-21.15v-37.7h20.39v4.06h-15.5v11.89h14.64v3.99h0v.14h0v.05l-.05-.02Z"/>
        <path class="cls-238" d="M528.22,388.63h20.32v4.06h-15.42v12.56h14.21v3.99h-14.21v17.05h-4.85v-37.7h0v.07h0l-.05-.02Z"/>
        <path class="cls-238" d="M579.13,408.64h-14.64v13.54h16.31v4.06h-21.15v-37.7h20.39v4.06h-15.5v11.89h14.64v3.99h0v.14h0v.05l-.05-.02Z"/>
        <path class="cls-238" d="M591.3,389.16c2.46-.53,6.02-.79,9.36-.79,5.23,0,8.55.93,10.86,3.13,1.89,1.67,2.96,4.18,2.96,7.16,0,5.01-3.13,8.26-7.09,9.67v.14c2.89,1.03,4.63,3.72,5.49,7.62,1.24,5.3,2.1,8.91,2.89,10.36h-5.01c-.6-1.1-1.43-4.25-2.53-9-1.1-5.23-3.13-7.16-7.52-7.31h-4.56v16.31h-4.85v-37.2h0v-.07l.05-.05h0l-.05.02ZM596.22,406.32h5.01c5.23,0,8.48-2.82,8.48-7.16,0-4.85-3.56-6.97-8.69-7.02-2.39,0-3.99.21-4.78.45v13.78h0l-.02-.05Z"/>
        <path class="cls-238" d="M625.59,389.16c2.46-.53,6.02-.79,9.36-.79,5.23,0,8.55.93,10.86,3.13,1.89,1.67,2.96,4.18,2.96,7.16,0,5.01-3.13,8.26-7.09,9.67v.14c2.89,1.03,4.63,3.72,5.49,7.62,1.24,5.3,2.1,8.91,2.89,10.36h-5.01c-.6-1.1-1.43-4.25-2.53-9-1.1-5.23-3.13-7.16-7.52-7.31h-4.56v16.31h-4.85v-37.2h0v-.07l.05-.05h0l-.05.02ZM630.43,406.32h5.01c5.23,0,8.48-2.82,8.48-7.16,0-4.85-3.56-6.97-8.69-7.02-2.39,0-3.99.21-4.78.45v13.78h0l-.02-.05Z"/>
        <path class="cls-238" d="M679.36,408.64h-14.64v13.54h16.31v4.06h-21.15v-37.7h20.39v4.06h-15.49v11.89h14.64v3.99h0v.14h0v.05l-.05-.02Z"/>
        <path class="cls-238" d="M691.56,389.16c2.96-.45,6.54-.79,10.36-.79,6.97,0,11.96,1.58,15.23,4.7,3.34,3.06,5.3,7.38,5.3,13.54s-1.89,11.17-5.42,14.64c-3.56,3.56-9.36,5.42-16.66,5.42-3.49,0-6.4-.14-8.83-.45v-37.05h0l.07-.07h0l-.05.05v.02ZM696.38,422.42c1.24.21,3.06.29,4.92.29,10.36,0,16-5.8,16-16,0-8.91-5.01-14.49-15.23-14.49-2.53,0-4.42.21-5.73.53v29.7h0l.05-.02Z"/>
        <path class="cls-238" d="M749,389.09c2.39-.38,5.42-.74,9.36-.74,4.78,0,8.36,1.1,10.58,3.13,2.1,1.81,3.34,4.49,3.34,7.9s-1.03,6.09-2.89,8.05c-2.6,2.75-6.76,4.13-11.51,4.13-1.43,0-2.82,0-3.92-.38v15.09h-4.85v-37.25h0l-.07.07h-.05ZM753.89,407.28c1.1.29,2.39.38,3.99.38,5.87,0,9.43-2.82,9.43-8.05s-3.56-7.38-8.91-7.38c-2.1,0-3.8.14-4.56.38v14.64h0l.07.07h0l-.02-.05Z"/>
        <path class="cls-238" d="M784.33,414.44l-3.92,11.82h-5.01l12.82-37.7h5.87l12.89,37.7h-5.23l-3.99-11.82h-13.47.02ZM796.7,410.65l-3.72-10.79c-.79-2.46-1.38-4.7-1.96-6.88h-.07c-.6,2.24-1.17,4.49-1.89,6.83l-3.72,10.86h11.36v-.02Z"/>
        <path class="cls-238" d="M816.64,389.16c2.46-.53,6.02-.79,9.36-.79,5.23,0,8.55.93,10.86,3.13,1.89,1.67,2.96,4.18,2.96,7.16,0,5.01-3.13,8.26-7.09,9.67v.14c2.89,1.03,4.63,3.72,5.49,7.62,1.24,5.3,2.1,8.91,2.89,10.36h-5.01c-.6-1.1-1.43-4.25-2.53-9-1.1-5.23-3.13-7.16-7.52-7.31h-4.56v16.31h-4.85v-37.2h0v-.07l.05-.05h0l-.05.02ZM821.48,406.32h5.01c5.23,0,8.48-2.82,8.48-7.16,0-4.85-3.56-6.97-8.69-7.02-2.39,0-3.99.21-4.78.45v13.78h0l-.02-.05Z"/>
        <path class="cls-238" d="M858.61,392.76h-11.44v-4.13h27.91v4.13h-11.51v33.57h-4.92v-33.57h-.05Z"/>
        <path class="cls-238" d="M883.39,426.33v-37.7h5.3l12.1,19.05c2.82,4.42,5.01,8.4,6.76,12.27h.14c-.45-5.09-.6-9.74-.6-15.5v-15.81h4.56v37.7h-4.92l-11.96-19.12c-2.6-4.18-5.16-8.48-7.02-12.61h-.14c.29,4.78.38,9.36.38,15.59v16.07h-4.56v.07h0l-.05-.02Z"/>
        <path class="cls-238" d="M943.92,408.64h-14.64v13.54h16.31v4.06h-21.15v-37.7h20.39v4.06h-15.49v11.89h14.64v3.99h0v.14h0v.05l-.05-.02Z"/>
        <path class="cls-238" d="M956.07,389.16c2.46-.53,6.02-.79,9.36-.79,5.23,0,8.55.93,10.86,3.13,1.89,1.67,2.96,4.18,2.96,7.16,0,5.01-3.13,8.26-7.09,9.67v.14c2.89,1.03,4.63,3.72,5.49,7.62,1.24,5.3,2.1,8.91,2.89,10.36h-5.01c-.6-1.1-1.43-4.25-2.53-9-1.1-5.23-3.13-7.16-7.52-7.31h-4.56v16.31h-4.85v-37.2h0v-.07l.05-.05h0l-.05.02ZM960.94,406.32h5.01c5.23,0,8.48-2.82,8.48-7.16,0-4.85-3.56-6.97-8.69-7.02-2.39,0-3.99.21-4.78.45v13.78h0l-.02-.05Z"/>
      </g>
      <line class="cls-237" x1="1007.52" y1="377.58" x2="1007.52" y2="437.34"/>
    </g>
  </g>
</svg>